<svg width="124" height="102" viewBox="0 0 124 102" fill="none" xmlns="http://www.w3.org/2000/svg">
<g filter="url(#filter0_d)">
<path fill-rule="evenodd" clip-rule="evenodd" d="M23.6776 2.38299C21.8114 2.39186 20.3057 3.91193 20.3146 5.77817C20.3235 7.6444 21.8435 9.1501 23.7098 9.14123C25.576 9.13236 27.0817 7.61228 27.0728 5.74605C27.064 3.87981 25.5439 2.37412 23.6776 2.38299ZM23.6792 2.69023C21.9826 2.69829 20.6138 4.08018 20.6219 5.77676C20.6299 7.47333 22.0118 8.84215 23.7084 8.83408C25.405 8.82602 26.7738 7.44413 26.7657 5.74756C26.7577 4.05098 25.3758 2.68217 23.6792 2.69023Z" fill="url(#paint0_linear)"/>
</g>
<g filter="url(#filter1_d)">
<path fill-rule="evenodd" clip-rule="evenodd" d="M9.16973 3.93101C7.98646 3.93663 7.03178 4.90043 7.0374 6.0837C7.04303 7.26698 8.00682 8.22165 9.1901 8.21603C10.3734 8.21041 11.328 7.24661 11.3224 6.06334C11.3168 4.88006 10.353 3.92539 9.16973 3.93101ZM9.17071 4.12583C8.09501 4.13095 7.22712 5.00712 7.23223 6.08283C7.23735 7.15853 8.11352 8.02642 9.18923 8.0213C10.2649 8.01619 11.1328 7.14002 11.1277 6.06431C11.1226 4.98861 10.2464 4.12072 9.17071 4.12583Z" fill="url(#paint1_linear)"/>
</g>
<g filter="url(#filter2_d)">
<path fill-rule="evenodd" clip-rule="evenodd" d="M38.3376 27.1623C37.1543 27.1679 36.1996 28.1317 36.2053 29.315C36.2109 30.4982 37.1747 31.4529 38.3579 31.4473C39.5412 31.4417 40.4959 30.4779 40.4903 29.2946C40.4846 28.1113 39.5209 27.1566 38.3376 27.1623ZM38.3386 27.3571C37.2629 27.3622 36.395 28.2384 36.4001 29.3141C36.4052 30.3898 37.2814 31.2576 38.3571 31.2525C39.4328 31.2474 40.3007 30.3712 40.2956 29.2955C40.2904 28.2198 39.4143 27.352 38.3386 27.3571Z" fill="url(#paint2_linear)"/>
</g>
<g filter="url(#filter3_d)">
<path fill-rule="evenodd" clip-rule="evenodd" d="M12.3931 13.5874C10.5269 13.5963 9.02117 15.1163 9.03004 16.9826C9.03891 18.8488 10.559 20.3545 12.4252 20.3456C14.2915 20.3368 15.7971 18.8167 15.7883 16.9505C15.7794 15.0842 14.2593 13.5785 12.3931 13.5874ZM12.3947 13.8946C10.6981 13.9027 9.32927 15.2846 9.33733 16.9811C9.34539 18.6777 10.7273 20.0465 12.4239 20.0385C14.1204 20.0304 15.4892 18.6485 15.4812 16.9519C15.4731 15.2554 14.0912 13.8865 12.3947 13.8946Z" fill="url(#paint3_linear)"/>
</g>
<g filter="url(#filter4_d)">
<path fill-rule="evenodd" clip-rule="evenodd" d="M9.06868 26.0055C6.26933 26.0188 4.01079 28.2989 4.02409 31.0982C4.0374 33.8976 6.31751 36.1561 9.11686 36.1428C11.9162 36.1295 14.1748 33.8494 14.1615 31.05C14.1481 28.2507 11.868 25.9921 9.06868 26.0055ZM9.0709 26.4663C6.52603 26.4783 4.47282 28.5512 4.48491 31.096C4.49701 33.6409 6.56983 35.6941 9.1147 35.682C11.6596 35.6699 13.7128 33.5971 13.7007 31.0522C13.6886 28.5074 11.6158 26.4542 9.0709 26.4663Z" fill="url(#paint4_linear)"/>
</g>
<g filter="url(#filter5_d)">
<path fill-rule="evenodd" clip-rule="evenodd" d="M25.4589 16.0542C22.6596 16.0676 20.401 18.3477 20.4143 21.147C20.4277 23.9464 22.7078 26.2049 25.5071 26.1916C28.3065 26.1783 30.565 23.8982 30.5517 21.0988C30.5384 18.2995 28.2583 16.0409 25.4589 16.0542ZM25.4612 16.5151C22.9163 16.5271 20.8631 18.6 20.8752 21.1448C20.8873 23.6897 22.9601 25.7429 25.505 25.7308C28.0498 25.7187 30.103 23.6459 30.091 21.101C30.0789 18.5562 28.006 16.503 25.4612 16.5151Z" fill="url(#paint5_linear)"/>
</g>
<g filter="url(#filter6_d)">
<path fill-rule="evenodd" clip-rule="evenodd" d="M23.92 31.4476C20.1875 31.4653 17.1761 34.5055 17.1939 38.2379C17.2116 41.9704 20.2518 44.9818 23.9842 44.9641C27.7167 44.9463 30.7281 41.9062 30.7103 38.1737C30.6926 34.4412 27.6525 31.4298 23.92 31.4476ZM23.9229 32.062C20.5298 32.0782 17.7921 34.8419 17.8083 38.2351C17.8244 41.6282 20.5882 44.3659 23.9813 44.3497C27.3745 44.3336 30.1121 41.5698 30.096 38.1767C30.0799 34.7835 27.3161 32.0459 23.9229 32.062Z" fill="url(#paint6_linear)"/>
</g>
<g filter="url(#filter7_d)">
<path fill-rule="evenodd" clip-rule="evenodd" d="M40.4199 0.270371C35.177 0.29529 30.947 4.56567 30.9719 9.80853C30.9969 15.0514 35.2672 19.2814 40.5101 19.2564C45.753 19.2315 49.9829 14.9611 49.958 9.71829C49.9331 4.47543 45.6627 0.245453 40.4199 0.270371ZM40.4241 1.13344C35.6578 1.15609 31.8124 5.03825 31.835 9.80449C31.8577 14.5707 35.7399 18.4162 40.5061 18.3935C45.2723 18.3709 49.1178 14.4887 49.0951 9.72245C49.0725 4.95622 45.1903 1.11078 40.4241 1.13344Z" fill="url(#paint7_linear)"/>
</g>
<g filter="url(#filter8_d)">
<rect x="61.9512" y="25.9814" width="16.5796" height="62.6341" rx="8.28981" fill="white"/>
</g>
<g opacity="0.7" filter="url(#filter9_d)">
<circle cx="85.439" cy="70.6542" r="17.9613" fill="#5AF3FD"/>
</g>
<g filter="url(#filter10_d)">
<circle cx="85.439" cy="70.6542" r="10.5925" fill="#5A61FD"/>
</g>
<circle cx="80.0975" cy="57.5911" r="42.9024" stroke="#00E6FF" stroke-width="2"/>
<defs>
<filter id="filter0_d" x="16.2985" y="2.36691" width="14.7904" height="16.7904" filterUnits="userSpaceOnUse" color-interpolation-filters="sRGB">
<feFlood flood-opacity="0" result="BackgroundImageFix"/>
<feColorMatrix in="SourceAlpha" type="matrix" values="0 0 0 0 0 0 0 0 0 0 0 0 0 0 0 0 0 0 127 0"/>
<feOffset dy="6"/>
<feGaussianBlur stdDeviation="2"/>
<feColorMatrix type="matrix" values="0 0 0 0 0 0 0 0 0 0 0 0 0 0 0 0 0 0 0.25 0"/>
<feBlend mode="normal" in2="BackgroundImageFix" result="effect1_dropShadow"/>
<feBlend mode="normal" in="SourceGraphic" in2="effect1_dropShadow" result="shape"/>
</filter>
<filter id="filter1_d" x="3.02722" y="3.92084" width="12.3054" height="14.3054" filterUnits="userSpaceOnUse" color-interpolation-filters="sRGB">
<feFlood flood-opacity="0" result="BackgroundImageFix"/>
<feColorMatrix in="SourceAlpha" type="matrix" values="0 0 0 0 0 0 0 0 0 0 0 0 0 0 0 0 0 0 127 0"/>
<feOffset dy="6"/>
<feGaussianBlur stdDeviation="2"/>
<feColorMatrix type="matrix" values="0 0 0 0 0 0 0 0 0 0 0 0 0 0 0 0 0 0 0.25 0"/>
<feBlend mode="normal" in2="BackgroundImageFix" result="effect1_dropShadow"/>
<feBlend mode="normal" in="SourceGraphic" in2="effect1_dropShadow" result="shape"/>
</filter>
<filter id="filter2_d" x="32.1951" y="27.1521" width="12.3054" height="14.3054" filterUnits="userSpaceOnUse" color-interpolation-filters="sRGB">
<feFlood flood-opacity="0" result="BackgroundImageFix"/>
<feColorMatrix in="SourceAlpha" type="matrix" values="0 0 0 0 0 0 0 0 0 0 0 0 0 0 0 0 0 0 127 0"/>
<feOffset dy="6"/>
<feGaussianBlur stdDeviation="2"/>
<feColorMatrix type="matrix" values="0 0 0 0 0 0 0 0 0 0 0 0 0 0 0 0 0 0 0.25 0"/>
<feBlend mode="normal" in2="BackgroundImageFix" result="effect1_dropShadow"/>
<feBlend mode="normal" in="SourceGraphic" in2="effect1_dropShadow" result="shape"/>
</filter>
<filter id="filter3_d" x="5.01398" y="13.5713" width="14.7904" height="16.7904" filterUnits="userSpaceOnUse" color-interpolation-filters="sRGB">
<feFlood flood-opacity="0" result="BackgroundImageFix"/>
<feColorMatrix in="SourceAlpha" type="matrix" values="0 0 0 0 0 0 0 0 0 0 0 0 0 0 0 0 0 0 127 0"/>
<feOffset dy="6"/>
<feGaussianBlur stdDeviation="2"/>
<feColorMatrix type="matrix" values="0 0 0 0 0 0 0 0 0 0 0 0 0 0 0 0 0 0 0.25 0"/>
<feBlend mode="normal" in2="BackgroundImageFix" result="effect1_dropShadow"/>
<feBlend mode="normal" in="SourceGraphic" in2="effect1_dropShadow" result="shape"/>
</filter>
<filter id="filter4_d" x="0" y="25.9814" width="18.1855" height="20.1855" filterUnits="userSpaceOnUse" color-interpolation-filters="sRGB">
<feFlood flood-opacity="0" result="BackgroundImageFix"/>
<feColorMatrix in="SourceAlpha" type="matrix" values="0 0 0 0 0 0 0 0 0 0 0 0 0 0 0 0 0 0 127 0"/>
<feOffset dy="6"/>
<feGaussianBlur stdDeviation="2"/>
<feColorMatrix type="matrix" values="0 0 0 0 0 0 0 0 0 0 0 0 0 0 0 0 0 0 0.25 0"/>
<feBlend mode="normal" in2="BackgroundImageFix" result="effect1_dropShadow"/>
<feBlend mode="normal" in="SourceGraphic" in2="effect1_dropShadow" result="shape"/>
</filter>
<filter id="filter5_d" x="16.3903" y="16.0302" width="18.1855" height="20.1855" filterUnits="userSpaceOnUse" color-interpolation-filters="sRGB">
<feFlood flood-opacity="0" result="BackgroundImageFix"/>
<feColorMatrix in="SourceAlpha" type="matrix" values="0 0 0 0 0 0 0 0 0 0 0 0 0 0 0 0 0 0 127 0"/>
<feOffset dy="6"/>
<feGaussianBlur stdDeviation="2"/>
<feColorMatrix type="matrix" values="0 0 0 0 0 0 0 0 0 0 0 0 0 0 0 0 0 0 0.25 0"/>
<feBlend mode="normal" in2="BackgroundImageFix" result="effect1_dropShadow"/>
<feBlend mode="normal" in="SourceGraphic" in2="effect1_dropShadow" result="shape"/>
</filter>
<filter id="filter6_d" x="13.1617" y="31.4155" width="21.5807" height="23.5807" filterUnits="userSpaceOnUse" color-interpolation-filters="sRGB">
<feFlood flood-opacity="0" result="BackgroundImageFix"/>
<feColorMatrix in="SourceAlpha" type="matrix" values="0 0 0 0 0 0 0 0 0 0 0 0 0 0 0 0 0 0 127 0"/>
<feOffset dy="6"/>
<feGaussianBlur stdDeviation="2"/>
<feColorMatrix type="matrix" values="0 0 0 0 0 0 0 0 0 0 0 0 0 0 0 0 0 0 0.25 0"/>
<feBlend mode="normal" in2="BackgroundImageFix" result="effect1_dropShadow"/>
<feBlend mode="normal" in="SourceGraphic" in2="effect1_dropShadow" result="shape"/>
</filter>
<filter id="filter7_d" x="26.9268" y="0.22525" width="27.0763" height="29.0763" filterUnits="userSpaceOnUse" color-interpolation-filters="sRGB">
<feFlood flood-opacity="0" result="BackgroundImageFix"/>
<feColorMatrix in="SourceAlpha" type="matrix" values="0 0 0 0 0 0 0 0 0 0 0 0 0 0 0 0 0 0 127 0"/>
<feOffset dy="6"/>
<feGaussianBlur stdDeviation="2"/>
<feColorMatrix type="matrix" values="0 0 0 0 0 0 0 0 0 0 0 0 0 0 0 0 0 0 0.25 0"/>
<feBlend mode="normal" in2="BackgroundImageFix" result="effect1_dropShadow"/>
<feBlend mode="normal" in="SourceGraphic" in2="effect1_dropShadow" result="shape"/>
</filter>
<filter id="filter8_d" x="57.9512" y="25.9814" width="24.5796" height="70.6341" filterUnits="userSpaceOnUse" color-interpolation-filters="sRGB">
<feFlood flood-opacity="0" result="BackgroundImageFix"/>
<feColorMatrix in="SourceAlpha" type="matrix" values="0 0 0 0 0 0 0 0 0 0 0 0 0 0 0 0 0 0 127 0"/>
<feOffset dy="4"/>
<feGaussianBlur stdDeviation="2"/>
<feColorMatrix type="matrix" values="0 0 0 0 0 0 0 0 0 0 0 0 0 0 0 0 0 0 0.25 0"/>
<feBlend mode="normal" in2="BackgroundImageFix" result="effect1_dropShadow"/>
<feBlend mode="normal" in="SourceGraphic" in2="effect1_dropShadow" result="shape"/>
</filter>
<filter id="filter9_d" x="63.4778" y="52.693" width="43.9225" height="43.9225" filterUnits="userSpaceOnUse" color-interpolation-filters="sRGB">
<feFlood flood-opacity="0" result="BackgroundImageFix"/>
<feColorMatrix in="SourceAlpha" type="matrix" values="0 0 0 0 0 0 0 0 0 0 0 0 0 0 0 0 0 0 127 0"/>
<feOffset dy="4"/>
<feGaussianBlur stdDeviation="2"/>
<feColorMatrix type="matrix" values="0 0 0 0 0 0 0 0 0 0 0 0 0 0 0 0 0 0 0.25 0"/>
<feBlend mode="normal" in2="BackgroundImageFix" result="effect1_dropShadow"/>
<feBlend mode="normal" in="SourceGraphic" in2="effect1_dropShadow" result="shape"/>
</filter>
<filter id="filter10_d" x="70.8464" y="60.0617" width="29.1851" height="29.1851" filterUnits="userSpaceOnUse" color-interpolation-filters="sRGB">
<feFlood flood-opacity="0" result="BackgroundImageFix"/>
<feColorMatrix in="SourceAlpha" type="matrix" values="0 0 0 0 0 0 0 0 0 0 0 0 0 0 0 0 0 0 127 0"/>
<feOffset dy="4"/>
<feGaussianBlur stdDeviation="2"/>
<feColorMatrix type="matrix" values="0 0 0 0 0 0 0 0 0 0 0 0 0 0 0 0 0 0 0.25 0"/>
<feBlend mode="normal" in2="BackgroundImageFix" result="effect1_dropShadow"/>
<feBlend mode="normal" in="SourceGraphic" in2="effect1_dropShadow" result="shape"/>
</filter>
<linearGradient id="paint0_linear" x1="23.6937" y1="5.76211" x2="27.0619" y2="3.4421" gradientUnits="userSpaceOnUse">
<stop stop-color="#00C2FF"/>
<stop offset="1" stop-color="#001BA9"/>
</linearGradient>
<linearGradient id="paint1_linear" x1="9.17991" y1="6.07352" x2="11.3155" y2="4.60253" gradientUnits="userSpaceOnUse">
<stop stop-color="#00C2FF"/>
<stop offset="1" stop-color="#001BA9"/>
</linearGradient>
<linearGradient id="paint2_linear" x1="38.3478" y1="29.3048" x2="40.4833" y2="27.8338" gradientUnits="userSpaceOnUse">
<stop stop-color="#00C2FF"/>
<stop offset="1" stop-color="#001BA9"/>
</linearGradient>
<linearGradient id="paint3_linear" x1="12.4092" y1="16.9665" x2="15.7773" y2="14.6465" gradientUnits="userSpaceOnUse">
<stop stop-color="#00C2FF"/>
<stop offset="1" stop-color="#001BA9"/>
</linearGradient>
<linearGradient id="paint4_linear" x1="9.09277" y1="31.0741" x2="14.145" y2="27.5941" gradientUnits="userSpaceOnUse">
<stop stop-color="#00C2FF"/>
<stop offset="1" stop-color="#001BA9"/>
</linearGradient>
<linearGradient id="paint5_linear" x1="25.483" y1="21.1229" x2="30.5353" y2="17.6429" gradientUnits="userSpaceOnUse">
<stop stop-color="#00C2FF"/>
<stop offset="1" stop-color="#001BA9"/>
</linearGradient>
<linearGradient id="paint6_linear" x1="23.9521" y1="38.2058" x2="30.6884" y2="33.5658" gradientUnits="userSpaceOnUse">
<stop stop-color="#00C2FF"/>
<stop offset="1" stop-color="#001BA9"/>
</linearGradient>
<linearGradient id="paint7_linear" x1="40.465" y1="9.76341" x2="49.9273" y2="3.24576" gradientUnits="userSpaceOnUse">
<stop stop-color="#00C2FF"/>
<stop offset="1" stop-color="#001BA9"/>
</linearGradient>
</defs>
</svg>
