<svg width="30" height="38" viewBox="0 0 30 38" fill="none" xmlns="http://www.w3.org/2000/svg">
<g filter="url(#filter0_d)">
<path fill-rule="evenodd" clip-rule="evenodd" d="M6.44065 16.5164C6.68401 17.4153 7.60379 17.9451 8.49504 17.6996C9.38628 17.4542 9.91151 16.5265 9.66815 15.6276C9.42479 14.7287 8.50502 14.199 7.61377 14.4444C6.72252 14.6899 6.1973 15.6175 6.44065 16.5164ZM6.58734 16.476C6.80857 17.2932 7.64474 17.7747 8.45496 17.5516C9.26519 17.3285 9.74266 16.4851 9.52143 15.668C9.3002 14.8508 8.46403 14.3692 7.65381 14.5923C6.84358 14.8155 6.36611 15.6588 6.58734 16.476Z" fill="url(#paint0_linear)"/>
</g>
<g filter="url(#filter1_d)">
<path fill-rule="evenodd" clip-rule="evenodd" d="M18.2794 21.5955C18.4337 22.1655 19.0169 22.5013 19.582 22.3457C20.1471 22.1901 20.4801 21.6019 20.3258 21.032C20.1715 20.462 19.5883 20.1262 19.0232 20.2818C18.4581 20.4374 18.1251 21.0256 18.2794 21.5955ZM18.3724 21.5699C18.5127 22.088 19.0429 22.3934 19.5566 22.2519C20.0703 22.1104 20.373 21.5757 20.2328 21.0576C20.0925 20.5395 19.5623 20.2341 19.0486 20.3756C18.5349 20.5171 18.2322 21.0518 18.3724 21.5699Z" fill="url(#paint1_linear)"/>
</g>
<g filter="url(#filter2_d)">
<path fill-rule="evenodd" clip-rule="evenodd" d="M9.2794 21.5955C9.43369 22.1655 10.0169 22.5013 10.582 22.3457C11.1471 22.1901 11.4801 21.6019 11.3258 21.032C11.1715 20.462 10.5883 20.1262 10.0232 20.2818C9.45811 20.4374 9.1251 21.0256 9.2794 21.5955ZM9.37236 21.5699C9.51264 22.088 10.0428 22.3934 10.5565 22.2519C11.0702 22.1104 11.373 21.5757 11.2327 21.0576C11.0924 20.5395 10.5623 20.2341 10.0486 20.3756C9.53483 20.5171 9.23209 21.0518 9.37236 21.5699Z" fill="url(#paint2_linear)"/>
</g>
<g filter="url(#filter3_d)">
<path fill-rule="evenodd" clip-rule="evenodd" d="M13.4407 21.5164C13.684 22.4153 14.6038 22.9451 15.495 22.6996C16.3863 22.4542 16.9115 21.5265 16.6681 20.6276C16.4248 19.7287 15.505 19.199 14.6138 19.4444C13.7225 19.6899 13.1973 20.6175 13.4407 21.5164ZM13.5873 21.476C13.8086 22.2932 14.6447 22.7747 15.455 22.5516C16.2652 22.3285 16.7427 21.4851 16.5214 20.668C16.3002 19.8508 15.464 19.3692 14.6538 19.5923C13.8436 19.8155 13.3661 20.6588 13.5873 21.476Z" fill="url(#paint3_linear)"/>
</g>
<g filter="url(#filter4_d)">
<path fill-rule="evenodd" clip-rule="evenodd" d="M11.4407 26.5164C11.684 27.4153 12.6038 27.9451 13.495 27.6996C14.3863 27.4542 14.9115 26.5265 14.6681 25.6276C14.4248 24.7287 13.505 24.199 12.6138 24.4444C11.7225 24.6899 11.1973 25.6175 11.4407 26.5164ZM11.5873 26.476C11.8086 27.2932 12.6447 27.7747 13.455 27.5516C14.2652 27.3285 14.7427 26.4851 14.5214 25.668C14.3002 24.8508 13.464 24.3692 12.6538 24.5923C11.8436 24.8155 11.3661 25.6588 11.5873 26.476Z" fill="url(#paint4_linear)"/>
</g>
<g filter="url(#filter5_d)">
<path fill-rule="evenodd" clip-rule="evenodd" d="M11.6609 15.7747C12.026 17.123 13.4056 17.9176 14.7425 17.5494C16.0794 17.1813 16.8672 15.7898 16.5022 14.4414C16.1372 13.0931 14.7575 12.2985 13.4206 12.6666C12.0837 13.0348 11.2959 14.4263 11.6609 15.7747ZM11.881 15.7141C12.2129 16.9398 13.4671 17.6622 14.6825 17.3275C15.8978 16.9928 16.614 15.7278 16.2822 14.502C15.9503 13.2763 14.6961 12.5539 13.4807 12.8886C12.2654 13.2233 11.5492 14.4883 11.881 15.7141Z" fill="url(#paint5_linear)"/>
</g>
<g filter="url(#filter6_d)">
<path fill-rule="evenodd" clip-rule="evenodd" d="M15.6609 9.77466C16.026 11.123 17.4056 11.9176 18.7425 11.5494C20.0794 11.1813 20.8672 9.78976 20.5022 8.44142C20.1372 7.09307 18.7575 6.29847 17.4206 6.66664C16.0837 7.03481 15.2959 8.42632 15.6609 9.77466ZM15.881 9.71404C16.2129 10.9398 17.4671 11.6622 18.6825 11.3275C19.8978 10.9928 20.614 9.72777 20.2822 8.502C19.9503 7.27623 18.6961 6.55387 17.4807 6.88856C16.2654 7.22326 15.5492 8.48827 15.881 9.71404Z" fill="url(#paint6_linear)"/>
</g>
<g filter="url(#filter7_d)">
<path fill-rule="evenodd" clip-rule="evenodd" d="M17.9509 16.4309C18.4762 18.3709 20.4612 19.5142 22.3847 18.9845C24.3082 18.4548 25.4417 16.4527 24.9165 14.5127C24.3913 12.5727 22.4062 11.4294 20.4827 11.9591C18.5593 12.4888 17.4257 14.4909 17.9509 16.4309ZM18.2676 16.3437C18.7451 18.1073 20.5497 19.1467 22.2983 18.6651C24.0469 18.1836 25.0774 16.3635 24.5999 14.5998C24.1225 12.8362 22.3179 11.7969 20.5692 12.2784C18.8206 12.76 17.7901 14.5801 18.2676 16.3437Z" fill="url(#paint7_linear)"/>
</g>
<g filter="url(#filter8_d)">
<path fill-rule="evenodd" clip-rule="evenodd" d="M6.99355 9.67368C7.54229 11.7006 9.61585 12.8951 11.625 12.3418C13.6341 11.7885 14.818 9.69688 14.2693 7.67C13.7205 5.64311 11.647 4.44853 9.63785 5.00183C7.62871 5.55513 6.44482 7.64679 6.99355 9.67368ZM7.32431 9.58263C7.82315 11.4253 9.70821 12.5112 11.5347 12.0082C13.3612 11.5052 14.4374 9.60372 13.9386 7.76109C13.4398 5.91847 11.5547 4.83249 9.72821 5.33549C7.90172 5.83849 6.82546 7.74 7.32431 9.58263Z" fill="url(#paint8_linear)"/>
</g>
<circle cx="15" cy="15" r="12" stroke="white" stroke-width="6"/>
<defs>
<filter id="filter0_d" x="2.38116" y="14.3844" width="11.3465" height="13.3752" filterUnits="userSpaceOnUse" color-interpolation-filters="sRGB">
<feFlood flood-opacity="0" result="BackgroundImageFix"/>
<feColorMatrix in="SourceAlpha" type="matrix" values="0 0 0 0 0 0 0 0 0 0 0 0 0 0 0 0 0 0 127 0"/>
<feOffset dy="6"/>
<feGaussianBlur stdDeviation="2"/>
<feColorMatrix type="matrix" values="0 0 0 0 0 0 0 0 0 0 0 0 0 0 0 0 0 0 0.25 0"/>
<feBlend mode="normal" in2="BackgroundImageFix" result="effect1_dropShadow"/>
<feBlend mode="normal" in="SourceGraphic" in2="effect1_dropShadow" result="shape"/>
</filter>
<filter id="filter1_d" x="14.2417" y="20.2437" width="10.1218" height="12.14" filterUnits="userSpaceOnUse" color-interpolation-filters="sRGB">
<feFlood flood-opacity="0" result="BackgroundImageFix"/>
<feColorMatrix in="SourceAlpha" type="matrix" values="0 0 0 0 0 0 0 0 0 0 0 0 0 0 0 0 0 0 127 0"/>
<feOffset dy="6"/>
<feGaussianBlur stdDeviation="2"/>
<feColorMatrix type="matrix" values="0 0 0 0 0 0 0 0 0 0 0 0 0 0 0 0 0 0 0.25 0"/>
<feBlend mode="normal" in2="BackgroundImageFix" result="effect1_dropShadow"/>
<feBlend mode="normal" in="SourceGraphic" in2="effect1_dropShadow" result="shape"/>
</filter>
<filter id="filter2_d" x="5.2417" y="20.2437" width="10.1218" height="12.14" filterUnits="userSpaceOnUse" color-interpolation-filters="sRGB">
<feFlood flood-opacity="0" result="BackgroundImageFix"/>
<feColorMatrix in="SourceAlpha" type="matrix" values="0 0 0 0 0 0 0 0 0 0 0 0 0 0 0 0 0 0 127 0"/>
<feOffset dy="6"/>
<feGaussianBlur stdDeviation="2"/>
<feColorMatrix type="matrix" values="0 0 0 0 0 0 0 0 0 0 0 0 0 0 0 0 0 0 0.25 0"/>
<feBlend mode="normal" in2="BackgroundImageFix" result="effect1_dropShadow"/>
<feBlend mode="normal" in="SourceGraphic" in2="effect1_dropShadow" result="shape"/>
</filter>
<filter id="filter3_d" x="9.38116" y="19.3844" width="11.3465" height="13.3752" filterUnits="userSpaceOnUse" color-interpolation-filters="sRGB">
<feFlood flood-opacity="0" result="BackgroundImageFix"/>
<feColorMatrix in="SourceAlpha" type="matrix" values="0 0 0 0 0 0 0 0 0 0 0 0 0 0 0 0 0 0 127 0"/>
<feOffset dy="6"/>
<feGaussianBlur stdDeviation="2"/>
<feColorMatrix type="matrix" values="0 0 0 0 0 0 0 0 0 0 0 0 0 0 0 0 0 0 0.25 0"/>
<feBlend mode="normal" in2="BackgroundImageFix" result="effect1_dropShadow"/>
<feBlend mode="normal" in="SourceGraphic" in2="effect1_dropShadow" result="shape"/>
</filter>
<filter id="filter4_d" x="7.38116" y="24.3844" width="11.3465" height="13.3752" filterUnits="userSpaceOnUse" color-interpolation-filters="sRGB">
<feFlood flood-opacity="0" result="BackgroundImageFix"/>
<feColorMatrix in="SourceAlpha" type="matrix" values="0 0 0 0 0 0 0 0 0 0 0 0 0 0 0 0 0 0 127 0"/>
<feOffset dy="6"/>
<feGaussianBlur stdDeviation="2"/>
<feColorMatrix type="matrix" values="0 0 0 0 0 0 0 0 0 0 0 0 0 0 0 0 0 0 0.25 0"/>
<feBlend mode="normal" in2="BackgroundImageFix" result="effect1_dropShadow"/>
<feBlend mode="normal" in="SourceGraphic" in2="effect1_dropShadow" result="shape"/>
</filter>
<filter id="filter5_d" x="7.57172" y="12.5767" width="13.0197" height="15.0628" filterUnits="userSpaceOnUse" color-interpolation-filters="sRGB">
<feFlood flood-opacity="0" result="BackgroundImageFix"/>
<feColorMatrix in="SourceAlpha" type="matrix" values="0 0 0 0 0 0 0 0 0 0 0 0 0 0 0 0 0 0 127 0"/>
<feOffset dy="6"/>
<feGaussianBlur stdDeviation="2"/>
<feColorMatrix type="matrix" values="0 0 0 0 0 0 0 0 0 0 0 0 0 0 0 0 0 0 0.25 0"/>
<feBlend mode="normal" in2="BackgroundImageFix" result="effect1_dropShadow"/>
<feBlend mode="normal" in="SourceGraphic" in2="effect1_dropShadow" result="shape"/>
</filter>
<filter id="filter6_d" x="11.5717" y="6.57666" width="13.0197" height="15.0628" filterUnits="userSpaceOnUse" color-interpolation-filters="sRGB">
<feFlood flood-opacity="0" result="BackgroundImageFix"/>
<feColorMatrix in="SourceAlpha" type="matrix" values="0 0 0 0 0 0 0 0 0 0 0 0 0 0 0 0 0 0 127 0"/>
<feOffset dy="6"/>
<feGaussianBlur stdDeviation="2"/>
<feColorMatrix type="matrix" values="0 0 0 0 0 0 0 0 0 0 0 0 0 0 0 0 0 0 0.25 0"/>
<feBlend mode="normal" in2="BackgroundImageFix" result="effect1_dropShadow"/>
<feBlend mode="normal" in="SourceGraphic" in2="effect1_dropShadow" result="shape"/>
</filter>
<filter id="filter7_d" x="13.8226" y="11.8297" width="15.2224" height="17.2843" filterUnits="userSpaceOnUse" color-interpolation-filters="sRGB">
<feFlood flood-opacity="0" result="BackgroundImageFix"/>
<feColorMatrix in="SourceAlpha" type="matrix" values="0 0 0 0 0 0 0 0 0 0 0 0 0 0 0 0 0 0 127 0"/>
<feOffset dy="6"/>
<feGaussianBlur stdDeviation="2"/>
<feColorMatrix type="matrix" values="0 0 0 0 0 0 0 0 0 0 0 0 0 0 0 0 0 0 0.25 0"/>
<feBlend mode="normal" in2="BackgroundImageFix" result="effect1_dropShadow"/>
<feBlend mode="normal" in="SourceGraphic" in2="effect1_dropShadow" result="shape"/>
</filter>
<filter id="filter8_d" x="2.85938" y="4.86658" width="15.5441" height="17.6105" filterUnits="userSpaceOnUse" color-interpolation-filters="sRGB">
<feFlood flood-opacity="0" result="BackgroundImageFix"/>
<feColorMatrix in="SourceAlpha" type="matrix" values="0 0 0 0 0 0 0 0 0 0 0 0 0 0 0 0 0 0 127 0"/>
<feOffset dy="6"/>
<feGaussianBlur stdDeviation="2"/>
<feColorMatrix type="matrix" values="0 0 0 0 0 0 0 0 0 0 0 0 0 0 0 0 0 0 0.25 0"/>
<feBlend mode="normal" in2="BackgroundImageFix" result="effect1_dropShadow"/>
<feBlend mode="normal" in="SourceGraphic" in2="effect1_dropShadow" result="shape"/>
</filter>
<linearGradient id="paint0_linear" x1="8.0544" y1="16.072" x2="6.50242" y2="14.7605" gradientUnits="userSpaceOnUse">
<stop stop-color="#00C2FF"/>
<stop offset="1" stop-color="#001BA9"/>
</linearGradient>
<linearGradient id="paint1_linear" x1="19.3026" y1="21.3138" x2="18.3186" y2="20.4822" gradientUnits="userSpaceOnUse">
<stop stop-color="#00C2FF"/>
<stop offset="1" stop-color="#001BA9"/>
</linearGradient>
<linearGradient id="paint2_linear" x1="10.3026" y1="21.3138" x2="9.31856" y2="20.4822" gradientUnits="userSpaceOnUse">
<stop stop-color="#00C2FF"/>
<stop offset="1" stop-color="#001BA9"/>
</linearGradient>
<linearGradient id="paint3_linear" x1="15.0544" y1="21.072" x2="13.5024" y2="19.7605" gradientUnits="userSpaceOnUse">
<stop stop-color="#00C2FF"/>
<stop offset="1" stop-color="#001BA9"/>
</linearGradient>
<linearGradient id="paint4_linear" x1="13.0544" y1="26.072" x2="11.5024" y2="24.7605" gradientUnits="userSpaceOnUse">
<stop stop-color="#00C2FF"/>
<stop offset="1" stop-color="#001BA9"/>
</linearGradient>
<linearGradient id="paint5_linear" x1="14.0816" y1="15.108" x2="11.7536" y2="13.1408" gradientUnits="userSpaceOnUse">
<stop stop-color="#00C2FF"/>
<stop offset="1" stop-color="#001BA9"/>
</linearGradient>
<linearGradient id="paint6_linear" x1="18.0816" y1="9.10804" x2="15.7536" y2="7.1408" gradientUnits="userSpaceOnUse">
<stop stop-color="#00C2FF"/>
<stop offset="1" stop-color="#001BA9"/>
</linearGradient>
<linearGradient id="paint7_linear" x1="21.4337" y1="15.4718" x2="18.0842" y2="12.6414" gradientUnits="userSpaceOnUse">
<stop stop-color="#00C2FF"/>
<stop offset="1" stop-color="#001BA9"/>
</linearGradient>
<linearGradient id="paint8_linear" x1="10.6314" y1="8.67184" x2="7.13185" y2="5.71526" gradientUnits="userSpaceOnUse">
<stop stop-color="#00C2FF"/>
<stop offset="1" stop-color="#001BA9"/>
</linearGradient>
</defs>
</svg>
