<svg xmlns="http://www.w3.org/2000/svg" xmlns:xlink="http://www.w3.org/1999/xlink" viewBox="0 0 800 796.4"><defs><style>.cls-1,.cls-3{fill:#fff;}.cls-1,.cls-11,.cls-23,.cls-24,.cls-25,.cls-28,.cls-46,.cls-49,.cls-5,.cls-51,.cls-7{fill-rule:evenodd;}.cls-2{fill:url(#linear-gradient);}.cls-4,.cls-56{fill:#ff855f;}.cls-38,.cls-39,.cls-4{stroke:#000;}.cls-5{fill:url(#linear-gradient-2);}.cls-6{fill:#ffbdb5;}.cls-7{fill:#c4c4c4;}.cls-8{fill:#ffcaad;}.cls-9{fill:#510013;}.cls-10{fill:#ffa296;}.cls-11{fill:#263646;}.cls-12{fill:red;}.cls-13{fill:#84504c;}.cls-14{fill:#293446;}.cls-15{fill:#99594d;}.cls-16{fill:#855042;}.cls-17{fill:#00a3ff;}.cls-18{fill:#ffc656;}.cls-19{fill:#d0aa8f;}.cls-20{fill:#075ff0;}.cls-21{fill:#e1b596;}.cls-22{fill:#cba58a;}.cls-23{fill:#3f0;}.cls-25{fill:#965b4d;}.cls-26,.cls-35,.cls-38,.cls-39,.cls-45,.cls-52,.cls-59{fill:none;}.cls-26,.cls-52{stroke:#510013;}.cls-26,.cls-35,.cls-38,.cls-45,.cls-52{stroke-linecap:round;}.cls-26,.cls-38,.cls-39,.cls-45{stroke-width:2px;}.cls-27{fill:#8c2e2e;}.cls-28{fill:#ff9595;}.cls-29{fill:#5af3fd;}.cls-30{fill:#56e1ff;}.cls-31,.cls-51{fill:#e95660;}.cls-32{fill:#e5b07f;}.cls-33{fill:#e0a46c;}.cls-34{fill:#ffaa7c;}.cls-35,.cls-45{stroke:#5c3d3b;stroke-linejoin:round;}.cls-35,.cls-59{stroke-width:4px;}.cls-36{fill:#5c3d3b;}.cls-37{fill:#341f1e;}.cls-40{fill:#ffcfc1;}.cls-41{fill:#702134;}.cls-42{mask:url(#mask);}.cls-43{mask:url(#mask-2);}.cls-44{fill:#f1af99;}.cls-46{fill:#573a00;}.cls-47{fill:#ffecea;}.cls-48,.cls-49{fill:#ffe2d5;}.cls-50{fill:#573900;}.cls-53{fill:#ec0071;}.cls-54{fill:#ffd179;}.cls-55{fill:#ffd98e;}.cls-57{fill:#00ffe0;}.cls-58{fill:#ff1c1c;}.cls-59{stroke:#3f0;stroke-dasharray:2 5;}</style><linearGradient id="linear-gradient" x1="859.06" y1="5679.68" x2="-53.15" y2="5027.83" gradientTransform="matrix(1, 0, 0, -1, 0, 5749.84)" gradientUnits="userSpaceOnUse"><stop offset="0.27" stop-color="#2e008f"/><stop offset="1" stop-color="#873eff"/></linearGradient><linearGradient id="linear-gradient-2" x1="165.42" y1="5375.03" x2="175.46" y2="5372.04" gradientTransform="matrix(1, 0, 0, -1, 0, 5749.84)" gradientUnits="userSpaceOnUse"><stop offset="0" stop-color="#00c2ff"/><stop offset="1" stop-color="#001ba9"/></linearGradient><mask id="mask" x="352.27" y="622.48" width="32.09" height="24.06" maskUnits="userSpaceOnUse"><g id="path-114-inside-1"><path class="cls-1" d="M354.57,624.48a20.21,20.21,0,0,0-.3,3.33c0,9.2,6.2,16.68,14,16.72s14.08-7.38,14.13-16.58a20.22,20.22,0,0,0-.27-3.33Z"/></g></mask><mask id="mask-2" x="383.31" y="622.63" width="32.09" height="24.06" maskUnits="userSpaceOnUse"><g id="path-116-inside-2"><path class="cls-1" d="M385.61,624.64a20.21,20.21,0,0,0-.3,3.33c0,9.19,6.21,16.68,14,16.72s14.08-7.39,14.13-16.58a19.19,19.19,0,0,0-.26-3.33Z"/></g></mask></defs><title>Illustrated_Characters</title><g id="Layer_2" data-name="Layer 2"><g id="Layer_1-2" data-name="Layer 1"><rect class="cls-2" width="800" height="796.4"/><circle class="cls-3" cx="160.24" cy="166.63" r="90"/><circle class="cls-3" cx="390.24" cy="166.63" r="90"/><circle class="cls-3" cx="620.74" cy="166.13" r="88.5"/><circle class="cls-3" cx="621.24" cy="393.63" r="90"/><circle class="cls-3" cx="623.24" cy="625.63" r="90"/><circle class="cls-3" cx="390.24" cy="396.63" r="90"/><circle class="cls-3" cx="159.24" cy="396.63" r="90"/><circle class="cls-3" cx="389.24" cy="625.63" r="90"/><circle class="cls-3" cx="159.24" cy="626.63" r="90"/><path class="cls-4" d="M403.74,226.63l18-15.5,8.5,14-24,19Z"/><path class="cls-5" d="M172.14,369.35a8.66,8.66,0,1,0-1.26,12.18A8.67,8.67,0,0,0,172.14,369.35Zm-.62.49a7.87,7.87,0,1,0-1.13,11.08A7.86,7.86,0,0,0,171.52,369.84Z"/><ellipse class="cls-6" cx="351.68" cy="410.85" rx="6.34" ry="12.69" transform="translate(-78.4 82.97) rotate(-12.12)"/><path class="cls-7" d="M417.13,358.76c6.6-3.73,10.67-8.83,10.67-14.47,0-11.41-16.69-20.66-37.27-20.66s-37.26,9.25-37.26,20.66c0,5.64,4.06,10.74,10.66,14.47,0-.11,0-.22,0-.33,0-4.81,11.92-8.7,26.62-8.7s26.62,3.89,26.62,8.7C417.15,358.54,417.14,358.65,417.13,358.76Z"/><ellipse class="cls-6" cx="427.15" cy="411.89" rx="12.69" ry="6.34" transform="translate(-65.23 743.06) rotate(-77.88)"/><rect class="cls-6" x="375.47" y="452.07" width="28.54" height="31.71"/><path class="cls-8" d="M353.27,384.36l9.57-5.23h51.24l10.55,5.23v47.07s-9.12,19.77-20.89,24.65c-10,4.16-17.74,3.91-27.85,0-12.3-4.75-22.62-24.65-22.62-24.65Z"/><path class="cls-9" d="M381.71,401.33c-8.46-2.78-12.72-2.49-19.82,0-2-2.86,0-6.34,10.31-6.34S383.82,399.49,381.71,401.33Z"/><path class="cls-9" d="M418.18,401.33c-8.46-2.78-12.72-2.49-19.82,0-2-2.86,0-6.34,10.31-6.34S420.29,399.49,418.18,401.33Z"/><ellipse cx="371.5" cy="407.67" rx="8.72" ry="3.17"/><ellipse cx="371.5" cy="407.67" rx="8.72" ry="3.17"/><ellipse cx="371.5" cy="407.67" rx="8.72" ry="3.17"/><ellipse cx="407.97" cy="407.67" rx="8.72" ry="3.17"/><ellipse cx="407.97" cy="407.67" rx="8.72" ry="3.17"/><ellipse cx="407.97" cy="407.67" rx="8.72" ry="3.17"/><rect class="cls-10" x="385.36" y="414.4" width="9.51" height="9.51" rx="2" transform="translate(-182.13 398.63) rotate(-45)"/><path class="cls-1" d="M408.77,431.46c0,8.76-8.17,15.86-18.24,15.86s-18.24-7.1-18.24-15.86Z"/><path class="cls-9" d="M346.13,383.1l7.14,17.44.79-11.89c6.63-1.28,12.4-6.91,15.86-6.35s35.1.45,37.26,0,10.7,3.86,17.45,4v15.85l7.92-15.85L389.74,371.2Z"/><path class="cls-11" d="M429.35,392.3c9.83-5.43,15.89-12.88,15.89-21.1,0-16.64-24.85-30.13-55.5-30.13s-55.5,13.49-55.5,30.13c0,8.22,6.06,15.67,15.88,21.1a3.87,3.87,0,0,1,0-.48c0-7,17.75-12.69,39.65-12.69s39.64,5.68,39.64,12.69A3.87,3.87,0,0,1,429.35,392.3Z"/><path class="cls-12" d="M194.09,115.57c3.81,6,3.81,32.43,3.81,32.43l-61.74-21.84s-3.81-15.89,0-20.52,7.62-7.94,30.49-4.63S190.28,109.61,194.09,115.57Z"/><path d="M129,156.66l5.08-8.84,53,4.42,9.43,7,1.45-11.42L129,140.45l-5.08,7.37L129,170.66Z"/><ellipse class="cls-13" cx="126.91" cy="181.23" rx="6.04" ry="12.08" transform="matrix(0.98, -0.21, 0.21, 0.98, -35.21, 30.68)"/><path class="cls-14" d="M197.9,149.51l-66.38-7.2-7.55,7.2c-16.32-8.89-25.68-17-21.9-26.19s29.45-9.82,29.45-9.82C178.73,111.07,191.45,127.41,197.9,149.51Z"/><ellipse class="cls-13" cx="198.79" cy="182.23" rx="12.08" ry="6.04" transform="translate(-21.1 338.34) rotate(-77.88)"/><rect class="cls-13" x="146.55" y="222.01" width="33.23" height="25.68"/><path class="cls-15" d="M128.42,156l4.53-8.76,53.4,3.78,10,5v44.84s-8.68,18.82-19.89,23.48c-9.54,4-16.89,3.72-26.53,0-11.72-4.53-21.55-23.48-21.55-23.48Z"/><path class="cls-9" d="M151.41,170.19c-8.43-.95-12.35.15-18.49,3.86-2.42-2.29-1.23-5.92,8.38-7.92S153,168.06,151.41,170.19Z"/><path class="cls-9" d="M188.53,170.49c-7.57-3.82-11.63-4.16-18.67-2.82-1.48-3,.9-6,10.61-4.51S190.77,169.05,188.53,170.49Z"/><ellipse cx="141.26" cy="178.21" rx="8.31" ry="3.02"/><ellipse cx="141.26" cy="178.21" rx="8.31" ry="3.02"/><ellipse cx="141.26" cy="178.21" rx="8.31" ry="3.02"/><ellipse cx="174.49" cy="178.21" rx="8.31" ry="3.02"/><ellipse cx="174.49" cy="178.21" rx="8.31" ry="3.02"/><ellipse cx="174.49" cy="178.21" rx="8.31" ry="3.02"/><rect class="cls-16" x="151.45" y="186.13" width="9.06" height="9.06" rx="2" transform="translate(-89.13 166.13) rotate(-45)"/><path class="cls-1" d="M179.19,197.22l-33.88,7.66c1.84,8.14,10.92,13,20.27,10.9S181,205.36,179.19,197.22Z"/><path class="cls-17" d="M127.38,574.53c-3.81,6-3.81,32.43-3.81,32.43l61.74-21.84s3.82-15.88,0-20.52-7.62-7.94-30.49-4.63S131.19,568.58,127.38,574.53Z"/><path class="cls-18" d="M192.5,615.62l-5.08-8.84-53,4.42-9.43,7-1.45-11.42,68.93-7.37,5.08,7.37-5.08,22.84Z"/><ellipse class="cls-19" cx="194.56" cy="640.19" rx="12.08" ry="6.04" transform="translate(-472.21 696.04) rotate(-77.88)"/><path class="cls-20" d="M123.57,608.47l66.38-7.2,7.55,7.2c16.33-8.88,25.68-17,21.9-26.18S190,572.46,190,572.46C142.74,570,130,586.38,123.57,608.47Z"/><ellipse class="cls-19" cx="122.68" cy="641.19" rx="6.04" ry="12.08" transform="matrix(0.98, -0.21, 0.21, 0.98, -131.86, 40.04)"/><rect class="cls-19" x="141.7" y="680.97" width="33.23" height="25.68"/><path class="cls-21" d="M193.05,615l-4.53-8.76L135.12,610l-10,5V659.8s8.68,18.83,19.89,23.48c9.54,4,16.89,3.72,26.53,0,11.72-4.52,21.55-23.48,21.55-23.48Z"/><path class="cls-18" d="M170.07,629.15c8.43-.94,12.35.15,18.48,3.86,2.43-2.28,1.23-5.91-8.38-7.92S168.46,627,170.07,629.15Z"/><path class="cls-18" d="M133,629.45c7.57-3.82,11.63-4.16,18.66-2.82,1.48-3-.9-6-10.61-4.5S130.7,628,133,629.45Z"/><ellipse cx="180.21" cy="637.17" rx="8.31" ry="3.02"/><ellipse cx="180.21" cy="637.17" rx="8.31" ry="3.02"/><ellipse cx="180.21" cy="637.17" rx="8.31" ry="3.02"/><ellipse cx="146.98" cy="637.17" rx="8.31" ry="3.02"/><ellipse cx="146.98" cy="637.17" rx="8.31" ry="3.02"/><ellipse cx="146.98" cy="637.17" rx="8.31" ry="3.02"/><rect class="cls-22" x="160.96" y="645.09" width="9.06" height="9.06" rx="2" transform="translate(-410.88 307.29) rotate(-45)"/><path class="cls-1" d="M142.28,656.18l33.88,7.67c-1.84,8.13-10.91,13-20.27,10.9S140.44,664.32,142.28,656.18Z"/><path class="cls-23" d="M160.24,256.63a90,90,0,1,0-90-90A90,90,0,0,0,160.24,256.63Zm0-11a79,79,0,1,0-79-79A79,79,0,0,0,160.24,245.63Z"/><path class="cls-23" d="M390.24,486.63a90,90,0,1,0-90-90A90,90,0,0,0,390.24,486.63Zm0-11a79,79,0,1,0-79-79A79,79,0,0,0,390.24,475.63Z"/><rect class="cls-13" x="610.24" y="452.63" width="22" height="27"/><path class="cls-24" d="M636.21,452c29.24-6.52,51-31.75,51-61.88,0-35.09-29.55-63.53-66-63.53s-66,28.44-66,63.53c0,30.13,21.79,55.36,51,61.88a35.51,35.51,0,0,1,29.94,0Z"/><path class="cls-25" d="M653.15,410a32.93,32.93,0,0,0,2.74-13.2c0-18.68-15.51-33.83-34.65-33.83s-34.65,15.15-34.65,33.83a33.1,33.1,0,0,0,2.74,13.2,33,33,0,0,0-2.74,13.2c0,18.68,15.51,33.82,34.65,33.82s34.65-15.14,34.65-33.82A32.86,32.86,0,0,0,653.15,410Z"/><path class="cls-26" d="M594.77,404.63c5,1.51,7.52,1.34,11.76,0"/><path class="cls-26" d="M634.3,404.63c5,1.51,7.52,1.34,11.76,0"/><path class="cls-9" d="M611,399.29c-8.88-2.82-13.36-2.53-20.81,0-2.11-2.9,0-6.42,10.82-6.42S613.18,397.42,611,399.29Z"/><path class="cls-9" d="M650.51,399.29c-8.89-2.82-13.37-2.53-20.82,0-2.1-2.9,0-6.42,10.83-6.42S652.72,397.42,650.51,399.29Z"/><rect class="cls-27" x="617.69" y="416.87" width="7.51" height="7.51" rx="2" transform="translate(-115.41 562.63) rotate(-45)"/><path class="cls-28" d="M654.12,412.45a37.58,37.58,0,0,0,6.9-21.71c0-21.24-17.7-38.47-39.54-38.47S582,369.5,582,390.74A37.55,37.55,0,0,0,588.52,412c.25-.68.52-1.36.81-2a32.93,32.93,0,0,1-2.74-13.2c0-18.68,15.51-33.83,34.65-33.83s34.65,15.15,34.65,33.83a33.1,33.1,0,0,1-2.74,13.2C653.51,410.77,653.83,411.6,654.12,412.45Z"/><circle class="cls-29" cx="604.39" cy="364.03" r="2.14"/><circle class="cls-29" cx="593.7" cy="368.3" r="2.14"/><circle class="cls-29" cx="584.09" cy="392.87" r="2.14"/><circle class="cls-29" cx="614" cy="356.55" r="2.14"/><circle class="cls-29" cx="636.44" cy="358.68" r="2.14"/><circle class="cls-30" cx="646.06" cy="366.16" r="2.14"/><circle class="cls-29" cx="653.54" cy="375.78" r="2.14"/><circle class="cls-29" cx="657.81" cy="388.6" r="2.14"/><circle class="cls-29" cx="623.62" cy="358.68" r="2.14"/><circle class="cls-29" cx="587.29" cy="380.05" r="2.14"/><ellipse class="cls-31" cx="621.74" cy="439.63" rx="9.5" ry="5"/><path class="cls-26" d="M613.24,439.63c7.21,1.41,10.87,1.25,17,0"/><rect class="cls-32" x="612.24" y="672.09" width="19" height="35"/><ellipse class="cls-32" cx="581.15" cy="638.67" rx="7.09" ry="14.19" transform="translate(-121.11 136.22) rotate(-12.12)"/><ellipse class="cls-32" cx="663.66" cy="640.16" rx="13.32" ry="8.3" transform="translate(-38.78 1237.52) rotate(-84.35)"/><path class="cls-33" d="M663.79,607.87,653.08,602H595.76L584,607.87v52.65s10.2,22.11,23.36,27.58c11.2,4.64,23.1-1.65,34.41-6,13.76-5.32,16.5-21.57,16.5-21.57Z"/><path class="cls-9" d="M630.06,625.4c9.79-1.81,14.48-.86,22,3,2.65-2.87,1-7-10.47-8.57S628,623,630.06,625.4Z"/><path class="cls-9" d="M587.18,625.34c9.47-3.11,14.24-2.79,22.17,0,2.25-3.21,0-7.1-11.53-7.1S584.83,623.28,587.18,625.34Z"/><ellipse cx="638.09" cy="633.9" rx="6.71" ry="3.36"/><ellipse cx="638.09" cy="633.9" rx="6.71" ry="3.36"/><ellipse cx="638.09" cy="633.9" rx="6.71" ry="3.36"/><ellipse cx="597.83" cy="633.9" rx="6.71" ry="3.36"/><ellipse cx="597.83" cy="633.9" rx="6.71" ry="3.36"/><ellipse cx="597.83" cy="633.9" rx="6.71" ry="3.36"/><rect class="cls-34" x="611.82" y="643.94" width="10.64" height="10.64" rx="2" transform="translate(-278.34 626.55) rotate(-45)"/><path class="cls-35" d="M624.67,668.58c-7.06,4.67-10.41,4.27-15.66,0"/><path class="cls-36" d="M641.24,603.09c10.07,2.79,22,15,20.5,22.5,0,0,16-50.22-10-63S641.24,603.09,641.24,603.09Z"/><path class="cls-37" d="M585,611.53c21.27-8.39,32.77-8.39,57-8.39l9.5-22.37c-7.06-9.95,0-20.18-9.5-20.18s-88.92-21.84-57,80.5C583.57,627.44,583.15,616.39,585,611.53Z"/><rect class="cls-34" x="609.24" y="212.63" width="19" height="35"/><ellipse class="cls-34" cx="659.33" cy="179.22" rx="14.19" ry="7.09" transform="translate(345.71 786.23) rotate(-77.88)"/><ellipse class="cls-34" cx="576.82" cy="180.71" rx="8.3" ry="13.32" transform="translate(-15 57.71) rotate(-5.65)"/><path class="cls-8" d="M576.69,148.42l10.71-5.85h57.32l11.79,5.85v52.65s-10.2,22.11-23.36,27.57c-11.2,4.65-23.1-1.64-34.41-6-13.76-5.31-16.5-21.56-16.5-21.56Z"/><path class="cls-9" d="M610.42,166c-9.79-1.82-14.48-.86-22,3-2.65-2.88-1-7,10.47-8.58S612.48,163.59,610.42,166Z"/><path class="cls-9" d="M653.3,165.88c-9.47-3.11-14.24-2.79-22.17,0-2.25-3.2,0-7.09,11.53-7.09S655.65,163.82,653.3,165.88Z"/><ellipse cx="602.39" cy="174.45" rx="6.71" ry="3.36"/><ellipse cx="602.39" cy="174.45" rx="6.71" ry="3.36"/><ellipse cx="602.39" cy="174.45" rx="6.71" ry="3.36"/><ellipse cx="642.65" cy="174.45" rx="6.71" ry="3.36"/><ellipse cx="642.65" cy="174.45" rx="6.71" ry="3.36"/><ellipse cx="642.65" cy="174.45" rx="6.71" ry="3.36"/><rect class="cls-34" x="618.01" y="184.48" width="10.64" height="10.64" rx="2" transform="translate(48.36 496.35) rotate(-45)"/><path class="cls-35" d="M615.81,209.12c7.06,4.67,10.41,4.27,15.66,0"/><path class="cls-36" d="M598.47,143.69c-10.06,2.8-20.69,13.42-20.69,25.72,0,0-17.34-33.55,0-45.85S598.47,143.69,598.47,143.69Z"/><path class="cls-37" d="M655.51,152.08c-20.85-11.55-34.25-10.45-57-8.39L589,121.32c7.06-9.95,11.18-10.63,20.69-10.63s77.73-35.79,45.85,66.55C656.91,163.6,657.33,156.93,655.51,152.08Z"/><path class="cls-38" d="M576.34,167.75c.9.68,3.91.1,8.38,2.46m0,0s32.58-4.71,32.38,2.56-6.56,12.69-14.38,12.47S584.31,182.57,584.72,170.21Z"/><path class="cls-38" d="M659.43,164.94c-.86.73-1.12,2.24-2.16,3.48m0,0s-32.79-2.94-32.2,4.3,7.24,12.32,15,11.68S658.35,180.73,657.27,168.42Z"/><path class="cls-39" d="M616.93,172.77c2.23-1.68,6.71-1.68,8.39,0"/><path class="cls-23" d="M620.24,256.63a90,90,0,1,0-90-90A90,90,0,0,0,620.24,256.63Zm0-11a79,79,0,1,0-79-79A79,79,0,0,0,620.24,245.63Z"/><rect class="cls-8" x="376.24" y="661.63" width="20" height="44"/><ellipse class="cls-40" cx="385.74" cy="635.63" rx="30.5" ry="46"/><path class="cls-41" d="M374.45,624.05c-9.09-3.24-13.71-3-21.46-.53-2.09-3.16.17-6.87,11.33-6.59S376.78,622.11,374.45,624.05Z"/><path class="cls-41" d="M405.3,624.05c-9.08-3.24-13.71-3-21.45-.53-2.1-3.16.17-6.87,11.33-6.59S407.63,622.11,405.3,624.05Z"/><path d="M442.24,683.86c-6.15-55.21,20.62-108.84-53.9-112.73-52.82,2.19-47.07,48.76-50.1,114.91,10.08,13,27.27,22.11,39,25.59v-32c-28-11.5-21-62.5-14.5-74.74s28.91-11,46.5,12.74c12,16.24-34.55,100.45-9.5,94S433.9,694.66,442.24,683.86Z"/><ellipse cx="396.74" cy="566.63" rx="15.5" ry="16"/><g class="cls-42"><path d="M354.57,624.48v-2h-1.69l-.29,1.66Zm27.52.14,2-.32-.28-1.67H382.1Zm-25.82,3.2a18.26,18.26,0,0,1,.27-3l-3.94-.69a21.94,21.94,0,0,0-.33,3.66Zm12,14.71c-6.35,0-12-6.29-12-14.71l-4,0c0,10,6.78,18.69,16,18.73Zm12.12-14.59c0,8.43-5.77,14.62-12.12,14.59l0,4c9.17.05,16.09-8.6,16.14-18.57Zm-.24-3a18.37,18.37,0,0,1,.24,3l4,0a23.08,23.08,0,0,0-.29-3.66Zm2-2.33-27.52-.14,0,4,27.52.14Z"/></g><g class="cls-43"><path d="M385.61,624.64v-2h-1.68l-.3,1.66Zm27.53.14,2-.33-.28-1.66h-1.68ZM387.31,628a18.16,18.16,0,0,1,.27-3l-3.94-.7a22.16,22.16,0,0,0-.33,3.67Zm12,14.71c-6.34,0-12-6.29-12-14.71l-4,0c-.05,10,6.79,18.68,15.95,18.73ZM411.4,628.1c0,8.42-5.77,14.62-12.12,14.59l0,4c9.17,0,16.09-8.6,16.14-18.57Zm-.24-3a17.16,17.16,0,0,1,.24,3l4,0a21.14,21.14,0,0,0-.29-3.67Zm2-2.33-27.53-.14,0,4,27.53.14Z"/></g><path class="cls-39" d="M381.61,628.78l4.44,0"/><ellipse cx="365.24" cy="629.13" rx="7" ry="3.5"/><ellipse cx="365.24" cy="629.13" rx="7" ry="3.5"/><ellipse cx="365.24" cy="629.13" rx="7" ry="3.5"/><ellipse cx="394.74" cy="629.13" rx="6.5" ry="3.5"/><ellipse cx="394.74" cy="629.13" rx="6.5" ry="3.5"/><ellipse cx="394.74" cy="629.13" rx="6.5" ry="3.5"/><rect class="cls-44" x="379.1" y="642.5" width="9" height="9" rx="2" transform="translate(-345.14 460.75) rotate(-45)"/><path class="cls-45" d="M376.24,657.63c9.26,4.12,10.13,4.34,16.07-3.36"/><path class="cls-23" d="M389.24,715.63a90,90,0,1,0-90-90A90,90,0,0,0,389.24,715.63Zm0-11a79,79,0,1,0-79-79A79,79,0,0,0,389.24,704.63Z"/><path class="cls-23" d="M159.24,716.63a90,90,0,1,0-90-90A90,90,0,0,0,159.24,716.63Zm0-11a79,79,0,1,0-79-79A79,79,0,0,0,159.24,705.63Z"/><path class="cls-46" d="M171.06,477.67c25-7.16,43.69-37,43.69-72.71,0-41-24.74-74.33-55.26-74.33S104.24,363.91,104.24,405c0,35.72,18.72,65.55,43.69,72.71v-16.1h23.13Z"/><ellipse class="cls-47" cx="189.58" cy="405.42" rx="13.23" ry="6.61" transform="translate(-246.6 505.68) rotate(-77.88)"/><rect class="cls-48" x="146.98" y="440.1" width="25.02" height="37.53"/><path class="cls-49" d="M128.21,399.94c10.27-16.76,21.43-32.76,34-38,10.77,3.38,17.85,10,26.51,22.56a78,78,0,0,1,1.11,13.27c0,27.37-13.8,49.56-30.83,49.56C142.45,447.3,128.93,426.29,128.21,399.94Z"/><path class="cls-50" d="M155.86,397.71c-8.82-2.9-13.27-2.6-20.66,0-2.1-3,0-6.61,10.74-6.61S158.06,395.79,155.86,397.71Z"/><path class="cls-50" d="M184.82,394.64c-9.18-1.36-13.52-.32-20.37,3.5-2.56-2.59-1.12-6.52,9.47-8.34S186.66,392.37,184.82,394.64Z"/><ellipse cx="174.95" cy="401.37" rx="9.09" ry="1.45" transform="translate(-65.49 35.46) rotate(-9.76)"/><ellipse cx="174.95" cy="401.37" rx="9.09" ry="1.45" transform="translate(-65.49 35.46) rotate(-9.76)"/><ellipse class="cls-9" cx="174.95" cy="401.37" rx="9.09" ry="1.45" transform="translate(-65.49 35.46) rotate(-9.76)"/><ellipse cx="145.69" cy="402.24" rx="1.45" ry="9.09" transform="translate(-261.22 534.33) rotate(-88.07)"/><ellipse cx="145.69" cy="402.24" rx="1.45" ry="9.09" transform="translate(-261.22 534.33) rotate(-88.07)"/><ellipse class="cls-9" cx="145.69" cy="402.24" rx="1.45" ry="9.09" transform="translate(-261.22 534.33) rotate(-88.07)"/><rect class="cls-10" x="158.98" y="411.44" width="7.62" height="7.62" rx="2" transform="translate(-245.95 236.74) rotate(-45)"/><path class="cls-51" d="M163.66,427.63c0,.55-.72,1-1.56,1s-1.53-.45-1.57-1c-4.72.23-8.34,1.53-8.34,3.09,0,1.72,4.44,3.12,9.91,3.12s9.9-1.4,9.9-3.12C172,429.16,168.39,427.86,163.66,427.63Z"/><path class="cls-52" d="M154.28,430.72c7.08,1.47,10.67,1.3,16.68,0"/><path class="cls-3" d="M191.16,411.41l.32,4.11,4.26,1.12-4.06,1.43.33,4.11L189.18,419l-4.06,1.42,2.31-3.42-2.84-3.24,4.26,1.12Z"/><path class="cls-3" d="M127.17,410.88l3.16,2.65,3.79-2.25-1.83,3.89,3.16,2.66-4.29-.25-1.83,3.89-.83-4-4.29-.25,3.78-2.25Z"/><circle class="cls-53" cx="165.23" cy="375.98" r="5.73"/><circle class="cls-53" cx="153.76" cy="375.98" r="5.73"/><circle class="cls-53" cx="142.29" cy="374.94" r="5.73"/><circle class="cls-53" cx="130.82" cy="369.73" r="5.73"/><circle class="cls-53" cx="120.4" cy="364.51" r="5.73"/><circle class="cls-53" cx="176.69" cy="373.9" r="5.73"/><circle class="cls-53" cx="188.16" cy="369.73" r="5.73"/><circle class="cls-53" cx="198.59" cy="363.47" r="5.73" transform="translate(-26.37 15.7) rotate(-4.25)"/><ellipse class="cls-6" cx="355.27" cy="180.17" rx="6.28" ry="12.56" transform="translate(-29.9 78.59) rotate(-12.12)"/><rect class="cls-54" x="378.89" y="216.27" width="28.26" height="31.4"/><path class="cls-55" d="M357.84,154l9.48-5.18h50.73L428.49,154v46.6s-9,19.57-20.68,24.4c-9.91,4.12-17.56,3.87-27.57,0-12.18-4.7-22.4-24.4-22.4-24.4Z"/><path class="cls-56" d="M386,173.92c-8.78-.86-12.84.34-19.16,4.28-2.55-2.34-1.36-6.13,8.59-8.36S387.59,171.69,386,173.92Z"/><path class="cls-56" d="M421.59,172.07c-8.74-1.19-12.84-.14-19.3,3.56-2.46-2.42-1.14-6.17,8.9-8S423.31,169.89,421.59,172.07Z"/><ellipse cx="378.89" cy="180.17" rx="6.28" ry="3.14"/><ellipse cx="378.89" cy="180.17" rx="6.28" ry="3.14"/><ellipse cx="378.89" cy="180.17" rx="6.28" ry="3.14"/><ellipse cx="412.3" cy="178.05" rx="6.28" ry="3.14" transform="translate(-24.33 72.96) rotate(-9.82)"/><ellipse cx="412.3" cy="178.05" rx="6.28" ry="3.14" transform="translate(-24.33 72.96) rotate(-9.82)"/><ellipse cx="412.3" cy="178.05" rx="6.28" ry="3.14" transform="translate(-24.33 72.96) rotate(-9.82)"/><rect class="cls-10" x="391.83" y="188.4" width="9.42" height="9.42" rx="2" transform="translate(-20.4 336.96) rotate(-45)"/><path class="cls-1" d="M415.87,200.59l-35.26,6.55c1.9,5.15,10.21,7.9,19.39,6.19S415.94,206.08,415.87,200.59Z"/><path class="cls-56" d="M422.74,120.63a40.6,40.6,0,0,0-30-7.5C380.85,115,351.06,128.29,343,152.75c-5.65,12.9-14.17,51.15-8.25,68.38s30,25,46,25c3.67-19.65-16.33-57.16-20.78-75.4,23.64-8,32.59-11.34,46.28-24.77,31,24.77,17,83.17-2.3,99.87,79-7.5,39.44-84.62,37-106.56C437.21,128.41,429.68,125.87,422.74,120.63Z"/><path class="cls-57" d="M449.24,172.63c-34-23.94-77.41-22.29-106.46-19.15-1.63-2.61,8.51-16.15,5.23-13.43s-17.78-4.62-28.77,7.08c2.05-8.17,3.55-12.2,7.57-17.31,6.26-5.41,11.26-6.17,16-6.17a41.91,41.91,0,0,1,15.08,6.17c-1.51-5-1.56-7.87,0-13.39,4.85-9.52,8.31-12.94,18.93-19.67,11.2-2.86,15.45,0,20.08,5.63-15.62,4.78-3.85,19.69-23.47,25.19,34.08-4.08,64.7-1,67.84,12.47S451.67,161.32,449.24,172.63Z"/><path class="cls-58" d="M383.71,107.5c-1.69-1.92-5.15-.5-5.15,2.71a4,4,0,0,0-5.65-2.1c-2.47,1.45,2.34,6,6.31,7.52C382.19,113.56,385.56,109.59,383.71,107.5Z"/><path class="cls-58" d="M371.71,116.5c-1.69-1.92-5.15-.5-5.15,2.71a4,4,0,0,0-5.65-2.1c-2.47,1.45,2.34,6,6.31,7.52C370.19,122.56,373.56,118.59,371.71,116.5Z"/><path class="cls-58" d="M343.71,127.5c-1.69-1.92-5.15-.5-5.15,2.71a4,4,0,0,0-5.65-2.1c-2.47,1.45,2.34,6,6.31,7.52C342.19,133.56,345.56,129.59,343.71,127.5Z"/><path class="cls-58" d="M369.71,138.5c-1.69-1.92-5.15-.5-5.15,2.71a4,4,0,0,0-5.65-2.1c-2.47,1.45,2.34,6,6.31,7.52C368.19,144.56,371.56,140.59,369.71,138.5Z"/><path class="cls-58" d="M395.71,133.5c-1.69-1.92-5.15-.5-5.15,2.71a4,4,0,0,0-5.65-2.1c-2.47,1.45,2.34,6,6.31,7.52C394.19,139.56,397.56,135.59,395.71,133.5Z"/><path class="cls-58" d="M414.71,144.5c-1.69-1.92-5.15-.5-5.15,2.71a4,4,0,0,0-5.65-2.1c-2.47,1.45,2.34,6,6.31,7.52C413.19,150.56,416.56,146.59,414.71,144.5Z"/><path class="cls-58" d="M439.71,155.5c-1.69-1.92-5.15-.5-5.15,2.71a4,4,0,0,0-5.64-2.1c-2.48,1.45,2.33,6,6.31,7.52C438.19,161.56,441.56,157.59,439.71,155.5Z"/><path class="cls-58" d="M433.71,135.5c-1.69-1.92-5.15-.5-5.15,2.71a4,4,0,0,0-5.64-2.1c-2.48,1.45,2.33,6,6.31,7.52C432.19,141.56,435.56,137.59,433.71,135.5Z"/><path class="cls-23" d="M159.24,486.63a90,90,0,1,0-90-90A90,90,0,0,0,159.24,486.63Zm0-11a79,79,0,1,0-79-79A79,79,0,0,0,159.24,475.63Z"/><path class="cls-23" d="M621.24,483.63a90,90,0,1,0-90-90A90,90,0,0,0,621.24,483.63Zm0-11a79,79,0,1,0-79-79A79,79,0,0,0,621.24,472.63Z"/><path class="cls-23" d="M390.24,256.63a90,90,0,1,0-90-90A90,90,0,0,0,390.24,256.63Zm0-11a79,79,0,1,0-79-79A79,79,0,0,0,390.24,245.63Z"/><line class="cls-59" x1="478.98" y1="163.65" x2="538.98" y2="155.65"/><line class="cls-59" x1="300.5" y1="165.65" x2="240.5" y2="157.65"/><line class="cls-59" x1="162.24" y1="315.16" x2="162.24" y2="254.63"/><line class="cls-59" x1="159.24" y1="549.16" x2="159.24" y2="488.63"/><line class="cls-59" x1="623.24" y1="540.16" x2="623.24" y2="479.63"/><line class="cls-59" x1="621.24" y1="308.16" x2="621.24" y2="247.63"/><line class="cls-59" x1="481.98" y1="638.65" x2="541.98" y2="630.65"/><line class="cls-59" x1="303.5" y1="640.65" x2="243.5" y2="632.65"/><line class="cls-59" x1="538.76" y1="397.63" x2="478.23" y2="397.67"/><line class="cls-59" x1="304.77" y1="399.63" x2="244.23" y2="399.67"/><line class="cls-59" x1="216.76" y1="228.34" x2="320.76" y2="351.34"/><line class="cls-59" x1="448.77" y1="458.34" x2="552.77" y2="581.34"/><line class="cls-59" x1="317.71" y1="442.34" x2="213.71" y2="565.34"/><line class="cls-59" x1="559.71" y1="220.34" x2="455.71" y2="343.34"/><path class="cls-23" d="M623.24,715.63a90,90,0,1,0-90-90A90,90,0,0,0,623.24,715.63Zm0-11a79,79,0,1,0-79-79A79,79,0,0,0,623.24,704.63Z"/></g></g></svg>