<svg width="256" height="36" viewBox="0 0 256 36" fill="none" xmlns="http://www.w3.org/2000/svg">
<path d="M0.592 11.672C0.592 10.04 0.864 8.648 1.408 7.496C1.984 6.312 2.752 5.352 3.712 4.616C4.672 3.848 5.792 3.288 7.072 2.936C8.384 2.584 9.776 2.408 11.248 2.408C13.616 2.408 15.36 2.728 16.48 3.368C17.6 3.976 18.16 5.032 18.16 6.536C18.16 7.176 18.016 7.752 17.728 8.264C17.472 8.776 17.184 9.16 16.864 9.416C16.256 9.256 15.616 9.128 14.944 9.032C14.304 8.904 13.552 8.84 12.688 8.84C11.312 8.84 10.24 9.08 9.472 9.56C8.704 10.008 8.32 10.808 8.32 11.96V13.496H16.192C16.384 13.848 16.56 14.296 16.72 14.84C16.912 15.352 17.008 15.928 17.008 16.568C17.008 17.688 16.752 18.504 16.24 19.016C15.76 19.496 15.104 19.736 14.272 19.736H8.752V34.952C8.432 35.048 7.92 35.144 7.216 35.24C6.544 35.336 5.84 35.384 5.104 35.384C4.4 35.384 3.76 35.336 3.184 35.24C2.64 35.144 2.176 34.952 1.792 34.664C1.408 34.376 1.104 33.992 0.88 33.512C0.688 33 0.592 32.344 0.592 31.544V11.672ZM20.8 5.192C20.8 3.976 21.2 2.952 22 2.12C22.832 1.288 23.92 0.871999 25.264 0.871999C26.608 0.871999 27.68 1.288 28.48 2.12C29.312 2.952 29.728 3.976 29.728 5.192C29.728 6.408 29.312 7.432 28.48 8.264C27.68 9.096 26.608 9.512 25.264 9.512C23.92 9.512 22.832 9.096 22 8.264C21.2 7.432 20.8 6.408 20.8 5.192ZM29.344 34.952C28.992 35.016 28.464 35.096 27.76 35.192C27.088 35.32 26.4 35.384 25.696 35.384C24.992 35.384 24.352 35.336 23.776 35.24C23.232 35.144 22.768 34.952 22.384 34.664C22 34.376 21.696 33.992 21.472 33.512C21.28 33 21.184 32.344 21.184 31.544V12.008C21.536 11.944 22.048 11.864 22.72 11.768C23.424 11.64 24.128 11.576 24.832 11.576C25.536 11.576 26.16 11.624 26.704 11.72C27.28 11.816 27.76 12.008 28.144 12.296C28.528 12.584 28.816 12.984 29.008 13.496C29.232 13.976 29.344 14.616 29.344 15.416V34.952ZM49.3113 20.216C49.3113 19.224 49.0233 18.504 48.4473 18.056C47.9033 17.576 47.1513 17.336 46.1913 17.336C45.5513 17.336 44.9113 17.416 44.2713 17.576C43.6633 17.736 43.1353 17.976 42.6873 18.296V34.952C42.3673 35.048 41.8553 35.144 41.1513 35.24C40.4793 35.336 39.7753 35.384 39.0393 35.384C38.3353 35.384 37.6953 35.336 37.1193 35.24C36.5753 35.144 36.1113 34.952 35.7273 34.664C35.3433 34.376 35.0393 33.992 34.8153 33.512C34.6233 33 34.5273 32.344 34.5273 31.544V17.144C34.5273 16.28 34.7033 15.576 35.0553 15.032C35.4393 14.488 35.9513 13.992 36.5913 13.544C37.6793 12.776 39.0393 12.152 40.6713 11.672C42.3353 11.192 44.1753 10.952 46.1913 10.952C49.8073 10.952 52.5913 11.752 54.5433 13.352C56.4953 14.92 57.4713 17.112 57.4713 19.928V34.952C57.1513 35.048 56.6393 35.144 55.9353 35.24C55.2633 35.336 54.5593 35.384 53.8233 35.384C53.1193 35.384 52.4793 35.336 51.9033 35.24C51.3593 35.144 50.8953 34.952 50.5113 34.664C50.1273 34.376 49.8233 33.992 49.5993 33.512C49.4073 33 49.3113 32.344 49.3113 31.544V20.216ZM61.5036 23.336C61.5036 21.224 61.8236 19.4 62.4636 17.864C63.1036 16.296 63.9836 15 65.1036 13.976C66.2556 12.952 67.5836 12.2 69.0876 11.72C70.6236 11.208 72.2716 10.952 74.0316 10.952C74.6716 10.952 75.2956 11.016 75.9036 11.144C76.5116 11.24 77.0076 11.368 77.3916 11.528V3.752C77.7116 3.656 78.2236 3.56 78.9276 3.464C79.6316 3.336 80.3516 3.272 81.0876 3.272C81.7916 3.272 82.4156 3.32 82.9596 3.416C83.5356 3.512 84.0156 3.704 84.3996 3.992C84.7836 4.28 85.0716 4.68 85.2636 5.192C85.4556 5.672 85.5516 6.312 85.5516 7.112V29.864C85.5516 31.368 84.8476 32.568 83.4396 33.464C82.5116 34.072 81.3116 34.6 79.8396 35.048C78.3676 35.528 76.6716 35.768 74.7516 35.768C72.6716 35.768 70.7996 35.48 69.1356 34.904C67.5036 34.328 66.1116 33.496 64.9596 32.408C63.8396 31.32 62.9756 30.024 62.3676 28.52C61.7916 26.984 61.5036 25.256 61.5036 23.336ZM75.1356 17.336C73.4076 17.336 72.0796 17.832 71.1516 18.824C70.2236 19.816 69.7596 21.32 69.7596 23.336C69.7596 25.32 70.1916 26.824 71.0556 27.848C71.9196 28.84 73.1676 29.336 74.7996 29.336C75.3756 29.336 75.8876 29.256 76.3356 29.096C76.8156 28.904 77.1836 28.696 77.4396 28.472V17.912C76.7996 17.528 76.0316 17.336 75.1356 17.336ZM100.342 11.672C100.342 10.04 100.614 8.648 101.158 7.496C101.734 6.312 102.502 5.352 103.462 4.616C104.422 3.848 105.542 3.288 106.822 2.936C108.134 2.584 109.526 2.408 110.998 2.408C113.366 2.408 115.11 2.728 116.23 3.368C117.35 3.976 117.91 5.032 117.91 6.536C117.91 7.176 117.766 7.752 117.478 8.264C117.222 8.776 116.934 9.16 116.614 9.416C116.006 9.256 115.366 9.128 114.694 9.032C114.054 8.904 113.302 8.84 112.438 8.84C111.062 8.84 109.99 9.08 109.222 9.56C108.454 10.008 108.07 10.808 108.07 11.96V13.496H115.942C116.134 13.848 116.31 14.296 116.47 14.84C116.662 15.352 116.758 15.928 116.758 16.568C116.758 17.688 116.502 18.504 115.99 19.016C115.51 19.496 114.854 19.736 114.022 19.736H108.502V34.952C108.182 35.048 107.67 35.144 106.966 35.24C106.294 35.336 105.59 35.384 104.854 35.384C104.15 35.384 103.51 35.336 102.934 35.24C102.39 35.144 101.926 34.952 101.542 34.664C101.158 34.376 100.854 33.992 100.63 33.512C100.438 33 100.342 32.344 100.342 31.544V11.672ZM128.094 34.952C127.774 35.048 127.262 35.144 126.558 35.24C125.886 35.336 125.182 35.384 124.446 35.384C123.742 35.384 123.102 35.336 122.526 35.24C121.982 35.144 121.518 34.952 121.134 34.664C120.75 34.376 120.446 33.992 120.222 33.512C120.03 33 119.934 32.344 119.934 31.544V17.144C119.934 16.408 120.062 15.784 120.318 15.272C120.606 14.728 121.006 14.248 121.518 13.832C122.03 13.416 122.654 13.048 123.39 12.728C124.158 12.376 124.974 12.072 125.838 11.816C126.702 11.56 127.598 11.368 128.526 11.24C129.454 11.08 130.382 11 131.31 11C132.846 11 134.062 11.304 134.958 11.912C135.854 12.488 136.302 13.448 136.302 14.792C136.302 15.24 136.238 15.688 136.11 16.136C135.982 16.552 135.822 16.936 135.63 17.288C134.958 17.288 134.27 17.32 133.566 17.384C132.862 17.448 132.174 17.544 131.502 17.672C130.83 17.8 130.19 17.944 129.582 18.104C129.006 18.232 128.51 18.392 128.094 18.584V34.952ZM139.476 5.192C139.476 3.976 139.876 2.952 140.676 2.12C141.508 1.288 142.596 0.871999 143.94 0.871999C145.284 0.871999 146.356 1.288 147.156 2.12C147.988 2.952 148.404 3.976 148.404 5.192C148.404 6.408 147.988 7.432 147.156 8.264C146.356 9.096 145.284 9.512 143.94 9.512C142.596 9.512 141.508 9.096 140.676 8.264C139.876 7.432 139.476 6.408 139.476 5.192ZM148.02 34.952C147.668 35.016 147.14 35.096 146.436 35.192C145.764 35.32 145.076 35.384 144.372 35.384C143.668 35.384 143.028 35.336 142.452 35.24C141.908 35.144 141.444 34.952 141.06 34.664C140.676 34.376 140.372 33.992 140.148 33.512C139.956 33 139.86 32.344 139.86 31.544V12.008C140.212 11.944 140.724 11.864 141.396 11.768C142.1 11.64 142.804 11.576 143.508 11.576C144.212 11.576 144.836 11.624 145.38 11.72C145.956 11.816 146.436 12.008 146.82 12.296C147.204 12.584 147.492 12.984 147.684 13.496C147.908 13.976 148.02 14.616 148.02 15.416V34.952ZM165.551 35.768C163.663 35.768 161.903 35.512 160.271 35C158.671 34.456 157.263 33.656 156.047 32.6C154.863 31.544 153.919 30.216 153.215 28.616C152.543 27.016 152.207 25.144 152.207 23C152.207 20.888 152.543 19.08 153.215 17.576C153.919 16.04 154.831 14.792 155.951 13.832C157.071 12.84 158.351 12.12 159.791 11.672C161.231 11.192 162.703 10.952 164.207 10.952C165.903 10.952 167.439 11.208 168.815 11.72C170.223 12.232 171.423 12.936 172.415 13.832C173.439 14.728 174.223 15.8 174.767 17.048C175.343 18.296 175.631 19.656 175.631 21.128C175.631 22.216 175.327 23.048 174.719 23.624C174.111 24.2 173.263 24.568 172.175 24.728L160.319 26.504C160.671 27.56 161.391 28.36 162.479 28.904C163.567 29.416 164.815 29.672 166.223 29.672C167.535 29.672 168.767 29.512 169.919 29.192C171.103 28.84 172.063 28.44 172.799 27.992C173.311 28.312 173.743 28.76 174.095 29.336C174.447 29.912 174.623 30.52 174.623 31.16C174.623 32.6 173.951 33.672 172.607 34.376C171.583 34.92 170.431 35.288 169.151 35.48C167.871 35.672 166.671 35.768 165.551 35.768ZM164.207 16.904C163.439 16.904 162.767 17.032 162.191 17.288C161.647 17.544 161.199 17.88 160.847 18.296C160.495 18.68 160.223 19.128 160.031 19.64C159.871 20.12 159.775 20.616 159.743 21.128L167.951 19.784C167.855 19.144 167.503 18.504 166.895 17.864C166.287 17.224 165.391 16.904 164.207 16.904ZM194.343 20.216C194.343 19.224 194.055 18.504 193.479 18.056C192.935 17.576 192.183 17.336 191.223 17.336C190.583 17.336 189.943 17.416 189.303 17.576C188.695 17.736 188.167 17.976 187.719 18.296V34.952C187.399 35.048 186.887 35.144 186.183 35.24C185.511 35.336 184.807 35.384 184.071 35.384C183.367 35.384 182.727 35.336 182.151 35.24C181.607 35.144 181.143 34.952 180.759 34.664C180.375 34.376 180.071 33.992 179.847 33.512C179.655 33 179.559 32.344 179.559 31.544V17.144C179.559 16.28 179.735 15.576 180.087 15.032C180.471 14.488 180.983 13.992 181.623 13.544C182.711 12.776 184.071 12.152 185.703 11.672C187.367 11.192 189.207 10.952 191.223 10.952C194.839 10.952 197.623 11.752 199.575 13.352C201.527 14.92 202.503 17.112 202.503 19.928V34.952C202.183 35.048 201.671 35.144 200.967 35.24C200.295 35.336 199.591 35.384 198.855 35.384C198.151 35.384 197.511 35.336 196.935 35.24C196.391 35.144 195.927 34.952 195.543 34.664C195.159 34.376 194.855 33.992 194.631 33.512C194.439 33 194.343 32.344 194.343 31.544V20.216ZM206.535 23.336C206.535 21.224 206.855 19.4 207.495 17.864C208.135 16.296 209.015 15 210.135 13.976C211.287 12.952 212.615 12.2 214.119 11.72C215.655 11.208 217.303 10.952 219.063 10.952C219.703 10.952 220.327 11.016 220.935 11.144C221.543 11.24 222.039 11.368 222.423 11.528V3.752C222.743 3.656 223.255 3.56 223.959 3.464C224.663 3.336 225.383 3.272 226.119 3.272C226.823 3.272 227.447 3.32 227.991 3.416C228.567 3.512 229.047 3.704 229.431 3.992C229.815 4.28 230.103 4.68 230.295 5.192C230.487 5.672 230.583 6.312 230.583 7.112V29.864C230.583 31.368 229.879 32.568 228.471 33.464C227.543 34.072 226.343 34.6 224.871 35.048C223.399 35.528 221.703 35.768 219.783 35.768C217.703 35.768 215.831 35.48 214.167 34.904C212.535 34.328 211.143 33.496 209.991 32.408C208.871 31.32 208.007 30.024 207.399 28.52C206.823 26.984 206.535 25.256 206.535 23.336ZM220.167 17.336C218.439 17.336 217.111 17.832 216.183 18.824C215.255 19.816 214.791 21.32 214.791 23.336C214.791 25.32 215.223 26.824 216.087 27.848C216.951 28.84 218.199 29.336 219.831 29.336C220.407 29.336 220.919 29.256 221.367 29.096C221.847 28.904 222.215 28.696 222.471 28.472V17.912C221.831 17.528 221.063 17.336 220.167 17.336ZM255.348 28.04C255.348 30.472 254.436 32.376 252.612 33.752C250.788 35.128 248.1 35.816 244.548 35.816C243.204 35.816 241.956 35.72 240.804 35.528C239.652 35.336 238.66 35.048 237.828 34.664C237.028 34.248 236.388 33.736 235.908 33.128C235.46 32.52 235.236 31.8 235.236 30.968C235.236 30.2 235.396 29.56 235.716 29.048C236.036 28.504 236.42 28.056 236.868 27.704C237.796 28.216 238.852 28.68 240.036 29.096C241.252 29.48 242.644 29.672 244.212 29.672C245.204 29.672 245.956 29.528 246.468 29.24C247.012 28.952 247.284 28.568 247.284 28.088C247.284 27.64 247.092 27.288 246.708 27.032C246.324 26.776 245.684 26.568 244.788 26.408L243.348 26.12C240.564 25.576 238.484 24.728 237.108 23.576C235.764 22.392 235.092 20.712 235.092 18.536C235.092 17.352 235.348 16.28 235.86 15.32C236.372 14.36 237.092 13.56 238.02 12.92C238.948 12.28 240.052 11.784 241.332 11.432C242.644 11.08 244.084 10.904 245.652 10.904C246.836 10.904 247.94 11 248.964 11.192C250.02 11.352 250.932 11.608 251.7 11.96C252.468 12.312 253.076 12.776 253.524 13.352C253.972 13.896 254.196 14.552 254.196 15.32C254.196 16.056 254.052 16.696 253.764 17.24C253.508 17.752 253.172 18.184 252.756 18.536C252.5 18.376 252.116 18.216 251.604 18.056C251.092 17.864 250.532 17.704 249.924 17.576C249.316 17.416 248.692 17.288 248.052 17.192C247.444 17.096 246.884 17.048 246.372 17.048C245.316 17.048 244.5 17.176 243.924 17.432C243.348 17.656 243.06 18.024 243.06 18.536C243.06 18.888 243.22 19.176 243.54 19.4C243.86 19.624 244.468 19.832 245.364 20.024L246.852 20.36C249.924 21.064 252.1 22.04 253.38 23.288C254.692 24.504 255.348 26.088 255.348 28.04Z" fill="white"/>
</svg>
