<svg width="222" height="34" viewBox="0 0 222 34" fill="none" xmlns="http://www.w3.org/2000/svg">
<path d="M12.872 0.951998C14.696 0.951998 16.344 1.192 17.816 1.672C19.32 2.12 20.584 2.712 21.608 3.448C22.248 3.896 22.744 4.392 23.096 4.936C23.48 5.48 23.672 6.184 23.672 7.048V23.848C23.672 25.544 23.352 27 22.712 28.216C22.072 29.464 21.192 30.488 20.072 31.288C18.984 32.12 17.688 32.728 16.184 33.112C14.712 33.496 13.128 33.688 11.432 33.688C8.52 33.688 6.232 33.288 4.568 32.488C2.904 31.72 2.072 30.456 2.072 28.696C2.072 27.96 2.216 27.304 2.504 26.728C2.824 26.184 3.176 25.768 3.56 25.48C4.488 25.992 5.528 26.424 6.68 26.776C7.864 27.128 9.08 27.304 10.328 27.304C12.056 27.304 13.432 27.016 14.456 26.44C15.48 25.864 15.992 24.936 15.992 23.656V22.888C14.68 23.464 13.08 23.752 11.192 23.752C9.752 23.752 8.376 23.544 7.064 23.128C5.784 22.68 4.648 22.008 3.656 21.112C2.696 20.184 1.912 19 1.304 17.56C0.728 16.12 0.44 14.408 0.44 12.424C0.44 10.472 0.744 8.776 1.352 7.336C1.992 5.896 2.856 4.712 3.944 3.784C5.064 2.824 6.376 2.12 7.88 1.672C9.416 1.192 11.08 0.951998 12.872 0.951998ZM15.848 7.912C15.624 7.784 15.288 7.656 14.84 7.528C14.424 7.4 13.896 7.336 13.256 7.336C11.688 7.336 10.504 7.784 9.704 8.68C8.936 9.544 8.552 10.792 8.552 12.424C8.552 14.28 8.936 15.624 9.704 16.456C10.504 17.256 11.512 17.656 12.728 17.656C14.04 17.656 15.08 17.352 15.848 16.744V7.912ZM36.8904 24.952C36.5704 25.048 36.0584 25.144 35.3544 25.24C34.6824 25.336 33.9784 25.384 33.2424 25.384C32.5384 25.384 31.8984 25.336 31.3224 25.24C30.7784 25.144 30.3144 24.952 29.9304 24.664C29.5464 24.376 29.2424 23.992 29.0184 23.512C28.8264 23 28.7304 22.344 28.7304 21.544V7.144C28.7304 6.408 28.8584 5.784 29.1144 5.272C29.4024 4.728 29.8024 4.248 30.3144 3.832C30.8264 3.416 31.4504 3.048 32.1864 2.728C32.9544 2.376 33.7704 2.072 34.6344 1.816C35.4984 1.56 36.3944 1.368 37.3224 1.24C38.2504 1.08 39.1784 1 40.1064 1C41.6424 1 42.8584 1.304 43.7544 1.912C44.6504 2.488 45.0984 3.448 45.0984 4.792C45.0984 5.24 45.0344 5.688 44.9064 6.136C44.7784 6.552 44.6184 6.936 44.4264 7.288C43.7544 7.288 43.0664 7.32 42.3624 7.384C41.6584 7.448 40.9704 7.544 40.2984 7.672C39.6264 7.8 38.9864 7.944 38.3784 8.104C37.8024 8.232 37.3064 8.392 36.8904 8.584V24.952ZM71.7181 13.336C71.7181 15.32 71.4141 17.096 70.8061 18.664C70.1981 20.2 69.3341 21.496 68.2141 22.552C67.1261 23.608 65.8141 24.408 64.2781 24.952C62.7421 25.496 61.0301 25.768 59.1421 25.768C57.2541 25.768 55.5421 25.48 54.0061 24.904C52.4701 24.328 51.1421 23.512 50.0221 22.456C48.9341 21.368 48.0861 20.056 47.4781 18.52C46.8701 16.984 46.5661 15.256 46.5661 13.336C46.5661 11.448 46.8701 9.736 47.4781 8.2C48.0861 6.664 48.9341 5.368 50.0221 4.312C51.1421 3.224 52.4701 2.392 54.0061 1.816C55.5421 1.24 57.2541 0.951998 59.1421 0.951998C61.0301 0.951998 62.7421 1.256 64.2781 1.864C65.8141 2.44 67.1261 3.272 68.2141 4.36C69.3341 5.416 70.1981 6.712 70.8061 8.248C71.4141 9.784 71.7181 11.48 71.7181 13.336ZM54.9181 13.336C54.9181 15.288 55.2861 16.792 56.0221 17.848C56.7901 18.872 57.8461 19.384 59.1901 19.384C60.5341 19.384 61.5581 18.856 62.2621 17.8C62.9981 16.744 63.3661 15.256 63.3661 13.336C63.3661 11.416 62.9981 9.944 62.2621 8.92C61.5261 7.864 60.4861 7.336 59.1421 7.336C57.7981 7.336 56.7581 7.864 56.0221 8.92C55.2861 9.944 54.9181 11.416 54.9181 13.336ZM88.7139 24.28C88.2659 24.664 87.6579 24.968 86.8899 25.192C86.1219 25.448 85.2099 25.576 84.1539 25.576C82.8419 25.576 81.7059 25.384 80.7459 25C79.7859 24.648 79.1459 24.136 78.8259 23.464C78.4739 22.696 78.0579 21.48 77.5779 19.816C77.1299 18.152 76.6819 16.328 76.2339 14.344C75.7859 12.36 75.3539 10.344 74.9379 8.296C74.5539 6.248 74.2499 4.44 74.0259 2.872C74.4739 2.424 75.0659 2.04 75.8019 1.72C76.5699 1.368 77.4019 1.192 78.2979 1.192C79.4179 1.192 80.3299 1.448 81.0339 1.96C81.7699 2.44 82.2179 3.288 82.3779 4.504C82.6979 6.936 82.9699 8.952 83.1939 10.552C83.4179 12.12 83.5939 13.416 83.7219 14.44C83.8819 15.432 83.9939 16.2 84.0579 16.744C84.1539 17.256 84.2339 17.672 84.2979 17.992H84.4899C84.5859 17.48 84.7459 16.744 84.9699 15.784C85.2259 14.792 85.5139 13.672 85.8339 12.424C86.1539 11.176 86.4899 9.832 86.8419 8.392C87.1939 6.92 87.5459 5.464 87.8979 4.024C88.5379 3.672 89.1619 3.4 89.7699 3.208C90.4099 3.016 91.1939 2.92 92.1219 2.92C93.2419 2.92 94.2019 3.096 95.0019 3.448C95.8019 3.8 96.3139 4.344 96.5379 5.08C96.9219 6.488 97.2899 7.864 97.6419 9.208C97.9939 10.52 98.3139 11.752 98.6019 12.904C98.8899 14.024 99.1459 15.032 99.3699 15.928C99.5939 16.792 99.7539 17.48 99.8499 17.992H100.09C100.442 15.528 100.778 12.968 101.098 10.312C101.45 7.656 101.77 4.952 102.058 2.2C102.634 1.848 103.242 1.592 103.882 1.432C104.522 1.272 105.162 1.192 105.802 1.192C106.922 1.192 107.85 1.432 108.586 1.912C109.322 2.392 109.69 3.224 109.69 4.408C109.69 4.92 109.61 5.688 109.45 6.712C109.29 7.736 109.082 8.888 108.826 10.168C108.57 11.448 108.266 12.792 107.914 14.2C107.594 15.608 107.258 16.968 106.906 18.28C106.586 19.592 106.266 20.776 105.946 21.832C105.658 22.888 105.402 23.704 105.178 24.28C104.73 24.664 104.042 24.968 103.114 25.192C102.186 25.448 101.194 25.576 100.138 25.576C97.4499 25.576 95.8659 24.904 95.3859 23.56C95.1939 22.984 94.9539 22.264 94.6659 21.4C94.3779 20.504 94.0739 19.528 93.7539 18.472C93.4339 17.416 93.1299 16.328 92.8419 15.208C92.5539 14.056 92.3139 12.952 92.1219 11.896C91.8979 13.016 91.6259 14.184 91.3059 15.4C90.9859 16.584 90.6499 17.752 90.2979 18.904C89.9779 20.024 89.6739 21.064 89.3859 22.024C89.0979 22.952 88.8739 23.704 88.7139 24.28ZM126.644 19.048C126.292 18.248 125.908 17.352 125.492 16.36C125.108 15.368 124.692 14.232 124.244 12.952C123.828 11.672 123.38 10.216 122.9 8.584C122.452 6.92 121.972 5.016 121.46 2.872C121.908 2.424 122.5 2.04 123.236 1.72C124.004 1.368 124.836 1.192 125.732 1.192C126.852 1.192 127.78 1.432 128.516 1.912C129.252 2.36 129.796 3.224 130.148 4.504L133.94 17.704H134.132C134.516 16.616 134.884 15.432 135.236 14.152C135.62 12.872 135.988 11.56 136.34 10.216C136.692 8.84 137.012 7.48 137.3 6.136C137.62 4.76 137.892 3.416 138.116 2.104C139.268 1.496 140.532 1.192 141.908 1.192C143.028 1.192 143.956 1.432 144.692 1.912C145.428 2.392 145.796 3.224 145.796 4.408C145.796 5.272 145.684 6.28 145.46 7.432C145.236 8.552 144.932 9.752 144.548 11.032C144.196 12.312 143.764 13.64 143.252 15.016C142.772 16.36 142.26 17.688 141.716 19C141.172 20.312 140.612 21.56 140.036 22.744C139.46 23.896 138.9 24.936 138.356 25.864C137.46 27.432 136.628 28.712 135.86 29.704C135.092 30.696 134.356 31.464 133.652 32.008C132.948 32.584 132.244 32.968 131.54 33.16C130.836 33.384 130.1 33.496 129.332 33.496C127.988 33.496 126.9 33.096 126.068 32.296C125.236 31.496 124.74 30.456 124.58 29.176C125.604 28.376 126.628 27.48 127.652 26.488C128.676 25.528 129.604 24.536 130.436 23.512C129.892 23.352 129.3 22.984 128.66 22.408C128.052 21.8 127.38 20.68 126.644 19.048ZM173.343 13.336C173.343 15.32 173.039 17.096 172.431 18.664C171.823 20.2 170.959 21.496 169.839 22.552C168.751 23.608 167.439 24.408 165.903 24.952C164.367 25.496 162.655 25.768 160.767 25.768C158.879 25.768 157.167 25.48 155.631 24.904C154.095 24.328 152.767 23.512 151.647 22.456C150.559 21.368 149.711 20.056 149.103 18.52C148.495 16.984 148.191 15.256 148.191 13.336C148.191 11.448 148.495 9.736 149.103 8.2C149.711 6.664 150.559 5.368 151.647 4.312C152.767 3.224 154.095 2.392 155.631 1.816C157.167 1.24 158.879 0.951998 160.767 0.951998C162.655 0.951998 164.367 1.256 165.903 1.864C167.439 2.44 168.751 3.272 169.839 4.36C170.959 5.416 171.823 6.712 172.431 8.248C173.039 9.784 173.343 11.48 173.343 13.336ZM156.543 13.336C156.543 15.288 156.911 16.792 157.647 17.848C158.415 18.872 159.471 19.384 160.815 19.384C162.159 19.384 163.183 18.856 163.887 17.8C164.623 16.744 164.991 15.256 164.991 13.336C164.991 11.416 164.623 9.944 163.887 8.92C163.151 7.864 162.111 7.336 160.767 7.336C159.423 7.336 158.383 7.864 157.647 8.92C156.911 9.944 156.543 11.416 156.543 13.336ZM177.324 2.008C177.644 1.912 178.14 1.816 178.812 1.72C179.516 1.624 180.236 1.576 180.972 1.576C181.676 1.576 182.3 1.624 182.844 1.72C183.42 1.816 183.9 2.008 184.284 2.296C184.668 2.584 184.956 2.984 185.148 3.496C185.372 3.976 185.484 4.616 185.484 5.416V15.736C185.484 17.048 185.804 17.992 186.444 18.568C187.084 19.112 188.012 19.384 189.228 19.384C189.964 19.384 190.556 19.32 191.004 19.192C191.484 19.064 191.852 18.936 192.108 18.808V2.008C192.428 1.912 192.924 1.816 193.596 1.72C194.3 1.624 195.02 1.576 195.756 1.576C196.46 1.576 197.084 1.624 197.628 1.72C198.204 1.816 198.684 2.008 199.068 2.296C199.452 2.584 199.74 2.984 199.932 3.496C200.156 3.976 200.268 4.616 200.268 5.416V20.008C200.268 21.608 199.596 22.808 198.252 23.608C197.132 24.312 195.788 24.84 194.22 25.192C192.684 25.576 191.004 25.768 189.18 25.768C187.452 25.768 185.852 25.576 184.38 25.192C182.94 24.808 181.692 24.216 180.636 23.416C179.58 22.616 178.764 21.592 178.188 20.344C177.612 19.064 177.324 17.528 177.324 15.736V2.008ZM213.422 24.952C213.102 25.048 212.59 25.144 211.886 25.24C211.214 25.336 210.51 25.384 209.774 25.384C209.07 25.384 208.43 25.336 207.854 25.24C207.31 25.144 206.846 24.952 206.462 24.664C206.078 24.376 205.774 23.992 205.55 23.512C205.358 23 205.262 22.344 205.262 21.544V7.144C205.262 6.408 205.39 5.784 205.646 5.272C205.934 4.728 206.334 4.248 206.846 3.832C207.358 3.416 207.982 3.048 208.718 2.728C209.486 2.376 210.302 2.072 211.166 1.816C212.03 1.56 212.926 1.368 213.854 1.24C214.782 1.08 215.71 1 216.638 1C218.174 1 219.39 1.304 220.286 1.912C221.182 2.488 221.63 3.448 221.63 4.792C221.63 5.24 221.566 5.688 221.438 6.136C221.31 6.552 221.15 6.936 220.958 7.288C220.286 7.288 219.598 7.32 218.894 7.384C218.19 7.448 217.502 7.544 216.83 7.672C216.158 7.8 215.518 7.944 214.91 8.104C214.334 8.232 213.838 8.392 213.422 8.584V24.952Z" fill="white"/>
</svg>
