<svg width="188" height="34" viewBox="0 0 188 34" fill="none" xmlns="http://www.w3.org/2000/svg">
<path d="M23.536 32.952C23.216 33.048 22.704 33.144 22 33.24C21.328 33.336 20.624 33.384 19.888 33.384C19.184 33.384 18.544 33.336 17.968 33.24C17.424 33.144 16.96 32.952 16.576 32.664C16.192 32.376 15.888 31.992 15.664 31.512C15.472 31 15.376 30.344 15.376 29.544V18.888C15.376 17.576 15.04 16.664 14.368 16.152C13.728 15.608 12.928 15.336 11.968 15.336C11.328 15.336 10.72 15.416 10.144 15.576C9.568 15.736 9.104 15.928 8.752 16.152V32.952C8.432 33.048 7.92 33.144 7.216 33.24C6.544 33.336 5.84 33.384 5.104 33.384C4.4 33.384 3.76 33.336 3.184 33.24C2.64 33.144 2.176 32.952 1.792 32.664C1.408 32.376 1.104 31.992 0.88 31.512C0.688 31 0.592 30.344 0.592 29.544V1.704C0.944 1.64 1.456 1.56 2.128 1.464C2.832 1.336 3.536 1.272 4.24 1.272C4.944 1.272 5.568 1.32 6.112 1.416C6.688 1.512 7.168 1.704 7.552 1.992C7.936 2.28 8.224 2.68 8.416 3.192C8.64 3.672 8.752 4.312 8.752 5.112V9.816C9.168 9.656 9.792 9.48 10.624 9.288C11.488 9.064 12.432 8.952 13.456 8.952C16.624 8.952 19.088 9.752 20.848 11.352C22.64 12.92 23.536 15.272 23.536 18.408V32.952ZM38.5581 27.816C39.1021 27.816 39.6941 27.768 40.3341 27.672C41.0061 27.544 41.5021 27.384 41.8221 27.192V23.352L38.3661 23.64C37.4701 23.704 36.7341 23.896 36.1581 24.216C35.5821 24.536 35.2941 25.016 35.2941 25.656C35.2941 26.296 35.5341 26.824 36.0141 27.24C36.5261 27.624 37.3741 27.816 38.5581 27.816ZM38.1741 8.952C39.9021 8.952 41.4701 9.128 42.8781 9.48C44.3181 9.832 45.5341 10.376 46.5261 11.112C47.5501 11.816 48.3341 12.728 48.8781 13.848C49.4221 14.936 49.6941 16.232 49.6941 17.736V28.488C49.6941 29.32 49.4541 30.008 48.9741 30.552C48.5261 31.064 47.9821 31.512 47.3421 31.896C45.2621 33.144 42.3341 33.768 38.5581 33.768C36.8621 33.768 35.3261 33.608 33.9501 33.288C32.6061 32.968 31.4381 32.488 30.4461 31.848C29.4861 31.208 28.7341 30.392 28.1901 29.4C27.6781 28.408 27.4221 27.256 27.4221 25.944C27.4221 23.736 28.0781 22.04 29.3901 20.856C30.7021 19.672 32.7341 18.936 35.4861 18.648L41.7741 17.976V17.64C41.7741 16.712 41.3581 16.056 40.5261 15.672C39.7261 15.256 38.5581 15.048 37.0221 15.048C35.8061 15.048 34.6221 15.176 33.4701 15.432C32.3181 15.688 31.2781 16.008 30.3501 16.392C29.9341 16.104 29.5821 15.672 29.2941 15.096C29.0061 14.488 28.8621 13.864 28.8621 13.224C28.8621 12.392 29.0541 11.736 29.4381 11.256C29.8541 10.744 30.4781 10.312 31.3101 9.96C32.2381 9.608 33.3261 9.352 34.5741 9.192C35.8541 9.032 37.0541 8.952 38.1741 8.952ZM69.721 32.376C69.273 32.728 68.617 33.016 67.753 33.24C66.889 33.464 65.913 33.576 64.825 33.576C63.577 33.576 62.489 33.416 61.561 33.096C60.665 32.776 60.041 32.264 59.689 31.56C59.401 31.016 59.049 30.264 58.633 29.304C58.249 28.312 57.833 27.224 57.385 26.04C56.937 24.824 56.473 23.528 55.993 22.152C55.513 20.776 55.049 19.416 54.601 18.072C54.185 16.728 53.801 15.432 53.449 14.184C53.097 12.936 52.809 11.832 52.585 10.872C53.033 10.424 53.625 10.04 54.361 9.72C55.129 9.368 55.961 9.192 56.857 9.192C57.977 9.192 58.889 9.432 59.593 9.912C60.329 10.36 60.873 11.224 61.225 12.504L63.097 19.848C63.449 21.288 63.785 22.6 64.105 23.784C64.425 24.936 64.665 25.832 64.825 26.472H65.065C65.673 24.104 66.313 21.48 66.985 18.6C67.657 15.72 68.265 12.888 68.809 10.104C69.353 9.816 69.961 9.592 70.633 9.432C71.337 9.272 72.009 9.192 72.649 9.192C73.769 9.192 74.713 9.432 75.481 9.912C76.249 10.392 76.633 11.224 76.633 12.408C76.633 12.92 76.505 13.672 76.249 14.664C76.025 15.624 75.721 16.728 75.337 17.976C74.985 19.192 74.553 20.488 74.041 21.864C73.561 23.24 73.065 24.584 72.553 25.896C72.041 27.208 71.529 28.44 71.017 29.592C70.537 30.712 70.105 31.64 69.721 32.376ZM92.3789 33.768C90.4909 33.768 88.7309 33.512 87.0989 33C85.4989 32.456 84.0909 31.656 82.8749 30.6C81.6909 29.544 80.7469 28.216 80.0429 26.616C79.3709 25.016 79.0349 23.144 79.0349 21C79.0349 18.888 79.3709 17.08 80.0429 15.576C80.7469 14.04 81.6589 12.792 82.7789 11.832C83.8989 10.84 85.1789 10.12 86.6189 9.672C88.0589 9.192 89.5309 8.952 91.0349 8.952C92.7309 8.952 94.2669 9.208 95.6429 9.72C97.0509 10.232 98.2509 10.936 99.2429 11.832C100.267 12.728 101.051 13.8 101.595 15.048C102.171 16.296 102.459 17.656 102.459 19.128C102.459 20.216 102.155 21.048 101.547 21.624C100.939 22.2 100.091 22.568 99.0029 22.728L87.1469 24.504C87.4989 25.56 88.2189 26.36 89.3069 26.904C90.3949 27.416 91.6429 27.672 93.0509 27.672C94.3629 27.672 95.5949 27.512 96.7469 27.192C97.9309 26.84 98.8909 26.44 99.6269 25.992C100.139 26.312 100.571 26.76 100.923 27.336C101.275 27.912 101.451 28.52 101.451 29.16C101.451 30.6 100.779 31.672 99.4349 32.376C98.4109 32.92 97.2589 33.288 95.9789 33.48C94.6989 33.672 93.4989 33.768 92.3789 33.768ZM91.0349 14.904C90.2669 14.904 89.5949 15.032 89.0189 15.288C88.4749 15.544 88.0269 15.88 87.6749 16.296C87.3229 16.68 87.0509 17.128 86.8589 17.64C86.6989 18.12 86.6029 18.616 86.5709 19.128L94.7789 17.784C94.6829 17.144 94.3309 16.504 93.7229 15.864C93.1149 15.224 92.2189 14.904 91.0349 14.904ZM116.092 9.672C116.092 8.04 116.364 6.648 116.908 5.496C117.484 4.312 118.252 3.352 119.212 2.616C120.172 1.848 121.292 1.288 122.572 0.935998C123.884 0.583999 125.276 0.407999 126.748 0.407999C129.116 0.407999 130.86 0.727999 131.98 1.368C133.1 1.976 133.66 3.032 133.66 4.536C133.66 5.176 133.516 5.752 133.228 6.264C132.972 6.776 132.684 7.16 132.364 7.416C131.756 7.256 131.116 7.128 130.444 7.032C129.804 6.904 129.052 6.84 128.188 6.84C126.812 6.84 125.74 7.08 124.972 7.56C124.204 8.008 123.82 8.808 123.82 9.96V11.496H131.692C131.884 11.848 132.06 12.296 132.22 12.84C132.412 13.352 132.508 13.928 132.508 14.568C132.508 15.688 132.252 16.504 131.74 17.016C131.26 17.496 130.604 17.736 129.772 17.736H124.252V32.952C123.932 33.048 123.42 33.144 122.716 33.24C122.044 33.336 121.34 33.384 120.604 33.384C119.9 33.384 119.26 33.336 118.684 33.24C118.14 33.144 117.676 32.952 117.292 32.664C116.908 32.376 116.604 31.992 116.38 31.512C116.188 31 116.092 30.344 116.092 29.544V9.672ZM136.152 10.008C136.472 9.912 136.968 9.816 137.64 9.72C138.344 9.624 139.064 9.576 139.8 9.576C140.504 9.576 141.128 9.624 141.672 9.72C142.248 9.816 142.728 10.008 143.112 10.296C143.496 10.584 143.784 10.984 143.976 11.496C144.2 11.976 144.312 12.616 144.312 13.416V23.736C144.312 25.048 144.632 25.992 145.272 26.568C145.912 27.112 146.84 27.384 148.056 27.384C148.792 27.384 149.384 27.32 149.832 27.192C150.312 27.064 150.68 26.936 150.936 26.808V10.008C151.256 9.912 151.752 9.816 152.424 9.72C153.128 9.624 153.848 9.576 154.584 9.576C155.288 9.576 155.912 9.624 156.456 9.72C157.032 9.816 157.512 10.008 157.896 10.296C158.28 10.584 158.568 10.984 158.76 11.496C158.984 11.976 159.096 12.616 159.096 13.416V28.008C159.096 29.608 158.424 30.808 157.08 31.608C155.96 32.312 154.616 32.84 153.048 33.192C151.512 33.576 149.832 33.768 148.008 33.768C146.28 33.768 144.68 33.576 143.208 33.192C141.768 32.808 140.52 32.216 139.464 31.416C138.408 30.616 137.592 29.592 137.016 28.344C136.44 27.064 136.152 25.528 136.152 23.736V10.008ZM178.874 18.216C178.874 17.224 178.586 16.504 178.01 16.056C177.466 15.576 176.714 15.336 175.754 15.336C175.114 15.336 174.474 15.416 173.834 15.576C173.226 15.736 172.698 15.976 172.25 16.296V32.952C171.93 33.048 171.418 33.144 170.714 33.24C170.042 33.336 169.338 33.384 168.602 33.384C167.898 33.384 167.258 33.336 166.682 33.24C166.138 33.144 165.674 32.952 165.29 32.664C164.906 32.376 164.602 31.992 164.378 31.512C164.186 31 164.09 30.344 164.09 29.544V15.144C164.09 14.28 164.266 13.576 164.618 13.032C165.002 12.488 165.514 11.992 166.154 11.544C167.242 10.776 168.602 10.152 170.234 9.672C171.898 9.192 173.738 8.952 175.754 8.952C179.37 8.952 182.154 9.752 184.106 11.352C186.058 12.92 187.034 15.112 187.034 17.928V32.952C186.714 33.048 186.202 33.144 185.498 33.24C184.826 33.336 184.122 33.384 183.386 33.384C182.682 33.384 182.042 33.336 181.466 33.24C180.922 33.144 180.458 32.952 180.074 32.664C179.69 32.376 179.386 31.992 179.162 31.512C178.97 31 178.874 30.344 178.874 29.544V18.216Z" fill="white"/>
</svg>
