<svg width="33" height="33" viewBox="0 0 33 33" fill="none" xmlns="http://www.w3.org/2000/svg">
<g filter="url(#filter0_d)">
<path fill-rule="evenodd" clip-rule="evenodd" d="M22.8981 6.71642C19.8797 3.00704 14.4258 2.4469 10.7164 5.46531C7.00701 8.48371 6.44686 13.9377 9.46527 17.647C12.4837 21.3564 17.9376 21.9166 21.647 18.8981C25.3564 15.8797 25.9165 10.4258 22.8981 6.71642ZM22.2875 7.21331C19.5435 3.84115 14.5854 3.33193 11.2132 6.07594C7.84108 8.81994 7.33186 13.7781 10.0759 17.1502C12.8199 20.5224 17.778 21.0316 21.1502 18.2876C24.5223 15.5436 25.0315 10.5855 22.2875 7.21331Z" fill="url(#paint0_linear)"/>
</g>
<defs>
<filter id="filter0_d" x="-4.57764e-05" y="0" width="32.3635" height="32.3635" filterUnits="userSpaceOnUse" color-interpolation-filters="sRGB">
<feFlood flood-opacity="0" result="BackgroundImageFix"/>
<feColorMatrix in="SourceAlpha" type="matrix" values="0 0 0 0 0 0 0 0 0 0 0 0 0 0 0 0 0 0 127 0"/>
<feOffset dy="4"/>
<feGaussianBlur stdDeviation="2"/>
<feColorMatrix type="matrix" values="0 0 0 0 0 0 0 0 0 0 0 0 0 0 0 0 0 0 0.25 0"/>
<feBlend mode="normal" in2="BackgroundImageFix" result="effect1_dropShadow"/>
<feBlend mode="normal" in="SourceGraphic" in2="effect1_dropShadow" result="shape"/>
</filter>
<linearGradient id="paint0_linear" x1="16.1817" y1="12.1817" x2="26.2264" y2="15.1718" gradientUnits="userSpaceOnUse">
<stop stop-color="#00C2FF"/>
<stop offset="1" stop-color="#001BA9"/>
</linearGradient>
</defs>
</svg>
