<svg width="73" height="70" viewBox="0 0 73 70" fill="none" xmlns="http://www.w3.org/2000/svg">
<g filter="url(#filter0_d)">
<path fill-rule="evenodd" clip-rule="evenodd" d="M4.52943 11.2536C4.52943 5.38765 9.28475 0.632324 15.1507 0.632324C21.0167 0.632324 25.7721 5.38765 25.7721 11.2537V26.2022L25.7721 30.9227C25.7721 36.7887 30.5274 41.544 36.3934 41.544C42.2594 41.544 47.0147 36.7887 47.0147 30.9227V26.2022V11.2536C47.0147 5.38764 51.77 0.632324 57.636 0.632324C63.502 0.632324 68.2574 5.38765 68.2574 11.2536V26.2022H68.2359C68.2502 26.6264 68.2574 27.0526 68.2574 27.4806C68.2574 46.5451 53.9914 61.9999 36.3934 61.9999C18.7954 61.9999 4.52942 46.5451 4.52942 27.4806C4.52942 27.0526 4.53661 26.6264 4.55087 26.2022H4.52943V11.2536Z" fill="white"/>
</g>
<defs>
<filter id="filter0_d" x="0.529419" y="0.632324" width="71.7279" height="69.3676" filterUnits="userSpaceOnUse" color-interpolation-filters="sRGB">
<feFlood flood-opacity="0" result="BackgroundImageFix"/>
<feColorMatrix in="SourceAlpha" type="matrix" values="0 0 0 0 0 0 0 0 0 0 0 0 0 0 0 0 0 0 127 0"/>
<feOffset dy="4"/>
<feGaussianBlur stdDeviation="2"/>
<feColorMatrix type="matrix" values="0 0 0 0 0 0 0 0 0 0 0 0 0 0 0 0 0 0 0.25 0"/>
<feBlend mode="normal" in2="BackgroundImageFix" result="effect1_dropShadow"/>
<feBlend mode="normal" in="SourceGraphic" in2="effect1_dropShadow" result="shape"/>
</filter>
</defs>
</svg>
